<?xml version="1.0" encoding="UTF-8"?>
<svg xmlns="http://www.w3.org/2000/svg" viewBox="0 0 796 576">
  <defs>
    <style>
      .cls-1 {
        fill: #aaa;
        isolation: isolate;
        opacity: .3;
      }

      .cls-1, .cls-2, .cls-3, .cls-4, .cls-5, .cls-6, .cls-7, .cls-8, .cls-9, .cls-10, .cls-11, .cls-12 {
        stroke-width: 0px;
      }

      .cls-2 {
        fill: rgba(255, 0, 0, 0);
      }

      .cls-13 {
        stroke: red;
      }

      .cls-13, .cls-14, .cls-15, .cls-4, .cls-16, .cls-17, .cls-18, .cls-19 {
        fill: none;
      }

      .cls-13, .cls-17 {
        stroke-width: 2.8px;
      }

      .cls-3 {
        fill: blue;
      }

      .cls-14 {
        stroke: #aaa;
      }

      .cls-15 {
        stroke-linecap: square;
      }

      .cls-15, .cls-19 {
        stroke: #eee;
        stroke-width: 1.3px;
      }

      .cls-5 {
        fill: red;
      }

      .cls-6 {
        fill: #968bea;
      }

      .cls-16 {
        stroke-width: 3.5px;
      }

      .cls-16, .cls-18 {
        stroke: #fff;
      }

      .cls-17 {
        stroke: blue;
      }

      .cls-18 {
        stroke-width: 4.8px;
      }

      .cls-7 {
        fill: #333;
      }

      .cls-8 {
        fill: rgba(0, 0, 0, 0);
      }

      .cls-9 {
        fill: #ed186f;
      }

      .cls-10 {
        fill: #4a4a4a;
      }

      .cls-11 {
        fill: #fff;
      }

      .cls-12 {
        fill: rgba(0, 0, 255, 0);
      }
    </style>
  </defs>
  <g id="baseMap">
    <path id="point-0-0" class="cls-2" d="M64.3,304.9c0-1.8,1.5-3.3,3.3-3.3s3.3,1.5,3.3,3.3h0c0,1.8-1.5,3.3-3.3,3.3s-3.3-1.5-3.3-3.3h0Z"/>
    <path id="point-0-1" class="cls-2" d="M99.8,256.4c0-1.8,1.5-3.3,3.3-3.3s3.3,1.5,3.3,3.3-1.5,3.3-3.3,3.3-3.3-1.5-3.3-3.3Z"/>
    <path id="point-0-2" class="cls-2" d="M135.2,159.3c0-1.8,1.5-3.3,3.3-3.3s3.3,1.5,3.3,3.3-1.5,3.3-3.3,3.3-3.3-1.5-3.3-3.3Z"/>
    <path id="point-0-3" class="cls-2" d="M170.7,329.2c0-1.8,1.5-3.3,3.3-3.3s3.3,1.5,3.3,3.3-1.5,3.3-3.3,3.3-3.3-1.5-3.3-3.3Z"/>
    <path id="point-0-4" class="cls-2" d="M206.1,280.7c0-1.8,1.5-3.3,3.3-3.3s3.3,1.5,3.3,3.3h0c0,1.8-1.5,3.3-3.3,3.3s-3.3-1.5-3.3-3.3h0Z"/>
    <path id="point-0-5" class="cls-2" d="M241.6,377.7c0-1.8,1.5-3.3,3.3-3.3s3.3,1.5,3.3,3.3-1.5,3.3-3.3,3.3-3.3-1.5-3.3-3.3Z"/>
    <path id="point-0-6" class="cls-2" d="M277,329.2c0-1.8,1.5-3.3,3.3-3.3s3.3,1.5,3.3,3.3-1.5,3.3-3.3,3.3-3.3-1.5-3.3-3.3Z"/>
    <path id="point-0-7" class="cls-2" d="M312.5,159.3c0-1.8,1.5-3.3,3.3-3.3s3.3,1.5,3.3,3.3-1.5,3.3-3.3,3.3-3.3-1.5-3.3-3.3Z"/>
    <path id="point-0-8" class="cls-2" d="M347.9,183.6c0-1.8,1.5-3.3,3.3-3.3s3.3,1.5,3.3,3.3-1.5,3.3-3.3,3.3-3.3-1.5-3.3-3.3Z"/>
    <path id="point-0-9" class="cls-2" d="M383.4,304.9c0-1.8,1.5-3.3,3.3-3.3s3.3,1.5,3.3,3.3h0c0,1.8-1.5,3.3-3.3,3.3s-3.3-1.5-3.3-3.3h0Z"/>
    <path id="point-0-10" class="cls-2" d="M418.8,377.7c0-1.8,1.5-3.3,3.3-3.3s3.3,1.5,3.3,3.3-1.5,3.3-3.3,3.3-3.3-1.5-3.3-3.3Z"/>
    <path id="point-0-11" class="cls-2" d="M454.3,207.9c0-1.8,1.5-3.3,3.3-3.3s3.3,1.5,3.3,3.3-1.5,3.3-3.3,3.3-3.3-1.5-3.3-3.3Z"/>
    <path id="point-0-12" class="cls-2" d="M489.7,207.9c0-1.8,1.5-3.3,3.3-3.3s3.3,1.5,3.3,3.3-1.5,3.3-3.3,3.3-3.3-1.5-3.3-3.3Z"/>
    <path id="point-0-13" class="cls-2" d="M525.2,402c0-1.8,1.5-3.3,3.3-3.3s3.3,1.5,3.3,3.3-1.5,3.3-3.3,3.3-3.3-1.5-3.3-3.3Z"/>
    <path id="point-0-14" class="cls-2" d="M560.6,304.9c0-1.8,1.5-3.3,3.3-3.3s3.3,1.5,3.3,3.3h0c0,1.8-1.5,3.3-3.3,3.3s-3.3-1.5-3.3-3.3h0Z"/>
    <path id="point-0-15" class="cls-2" d="M596.1,256.4c0-1.8,1.5-3.3,3.3-3.3s3.3,1.5,3.3,3.3-1.5,3.3-3.3,3.3-3.3-1.5-3.3-3.3Z"/>
    <path id="point-0-16" class="cls-2" d="M631.5,207.9c0-1.8,1.5-3.3,3.3-3.3s3.3,1.5,3.3,3.3-1.5,3.3-3.3,3.3-3.3-1.5-3.3-3.3Z"/>
    <path id="point-0-17" class="cls-2" d="M669.9,304.9c0-.2.1-.3.3-.3s.3.1.3.3h0c0,.2-.1.3-.3.3s-.3-.1-.3-.3Z"/>
    <path id="point-1-0" class="cls-12" d="M64.3,256.4c0-1.8,1.5-3.3,3.3-3.3s3.3,1.5,3.3,3.3h0c0,1.8-1.5,3.3-3.3,3.3s-3.3-1.5-3.3-3.3h0Z"/>
    <path id="point-1-1" class="cls-12" d="M99.8,280.7c0-1.8,1.5-3.3,3.3-3.3s3.3,1.5,3.3,3.3h0c0,1.8-1.5,3.3-3.3,3.3s-3.3-1.5-3.3-3.3h0Z"/>
    <path id="point-1-2" class="cls-12" d="M135.2,183.6c0-1.8,1.5-3.3,3.3-3.3s3.3,1.5,3.3,3.3-1.5,3.3-3.3,3.3-3.3-1.5-3.3-3.3Z"/>
    <path id="point-1-3" class="cls-12" d="M170.7,304.9c0-1.8,1.5-3.3,3.3-3.3s3.3,1.5,3.3,3.3h0c0,1.8-1.5,3.3-3.3,3.3s-3.3-1.5-3.3-3.3h0Z"/>
    <path id="point-1-4" class="cls-12" d="M206.1,280.7c0-1.8,1.5-3.3,3.3-3.3s3.3,1.5,3.3,3.3h0c0,1.8-1.5,3.3-3.3,3.3s-3.3-1.5-3.3-3.3h0Z"/>
    <path id="point-1-5" class="cls-12" d="M241.6,426.3c0-1.8,1.5-3.3,3.3-3.3s3.3,1.5,3.3,3.3-1.5,3.3-3.3,3.3-3.3-1.5-3.3-3.3h0Z"/>
    <path id="point-1-6" class="cls-12" d="M277,304.9c0-1.8,1.5-3.3,3.3-3.3s3.3,1.5,3.3,3.3h0c0,1.8-1.5,3.3-3.3,3.3s-3.3-1.5-3.3-3.3h0Z"/>
    <path id="point-1-7" class="cls-12" d="M312.5,183.6c0-1.8,1.5-3.3,3.3-3.3s3.3,1.5,3.3,3.3-1.5,3.3-3.3,3.3-3.3-1.5-3.3-3.3Z"/>
    <path id="point-1-8" class="cls-12" d="M347.9,402c0-1.8,1.5-3.3,3.3-3.3s3.3,1.5,3.3,3.3-1.5,3.3-3.3,3.3-3.3-1.5-3.3-3.3Z"/>
    <path id="point-1-9" class="cls-12" d="M383.4,304.9c0-1.8,1.5-3.3,3.3-3.3s3.3,1.5,3.3,3.3h0c0,1.8-1.5,3.3-3.3,3.3s-3.3-1.5-3.3-3.3h0Z"/>
    <path id="point-1-10" class="cls-12" d="M418.8,329.2c0-1.8,1.5-3.3,3.3-3.3s3.3,1.5,3.3,3.3-1.5,3.3-3.3,3.3-3.3-1.5-3.3-3.3Z"/>
    <path id="point-1-11" class="cls-12" d="M454.3,280.7c0-1.8,1.5-3.3,3.3-3.3s3.3,1.5,3.3,3.3h0c0,1.8-1.5,3.3-3.3,3.3s-3.3-1.5-3.3-3.3h0Z"/>
    <path id="point-1-12" class="cls-12" d="M489.7,353.5c0-1.8,1.5-3.3,3.3-3.3s3.3,1.5,3.3,3.3-1.5,3.3-3.3,3.3-3.3-1.5-3.3-3.3Z"/>
    <path id="point-1-13" class="cls-12" d="M525.2,402c0-1.8,1.5-3.3,3.3-3.3s3.3,1.5,3.3,3.3-1.5,3.3-3.3,3.3-3.3-1.5-3.3-3.3Z"/>
    <path id="point-1-14" class="cls-12" d="M560.6,353.5c0-1.8,1.5-3.3,3.3-3.3s3.3,1.5,3.3,3.3-1.5,3.3-3.3,3.3-3.3-1.5-3.3-3.3Z"/>
    <path id="point-1-15" class="cls-12" d="M596.1,329.2c0-1.8,1.5-3.3,3.3-3.3s3.3,1.5,3.3,3.3-1.5,3.3-3.3,3.3-3.3-1.5-3.3-3.3Z"/>
    <path id="point-1-16" class="cls-12" d="M631.5,159.3c0-1.8,1.5-3.3,3.3-3.3s3.3,1.5,3.3,3.3-1.5,3.3-3.3,3.3-3.3-1.5-3.3-3.3Z"/>
    <path id="point-1-17" class="cls-12" d="M669.9,353.5c0-.2.1-.3.3-.3s.3.1.3.3-.1.3-.3.3-.3-.1-.3-.3Z"/>
    <rect class="cls-4" x="82.7" y="77.6" width="694.1" height="420.2"/>
    <rect class="cls-4" x="82.7" y="77.6" width="694.1" height="420.2"/>
    <rect class="cls-4" x="82.7" y="85.2" width="638.1" height="412.5"/>
    <rect class="cls-8" x="81.05" y="83.95" width="638.1" height="412.5"/>
    <rect class="cls-4" x="81.5" y="84" width="640.6" height="415"/>
    <line class="cls-19" x1="82.7" y1="400.7" x2="720.8" y2="400.7"/>
    <line class="cls-19" x1="82.7" y1="279.4" x2="720.8" y2="279.4"/>
    <line class="cls-19" x1="82.7" y1="158" x2="720.8" y2="158"/>
    <line class="cls-15" x1="82.7" y1="497.7" x2="720.8" y2="497.7"/>
    <line class="cls-19" x1="100.5" y1="497.7" x2="100.5" y2="504.4"/>
    <path class="cls-10" d="M56.92,557.09c-.8-.8-1.35-1.52-1.68-2.17-.32-.65-.45-1.27-.39-1.85.06-.59.33-1.12.82-1.62.36-.36.75-.6,1.17-.73.42-.13.85-.14,1.3-.04.45.1.92.29,1.42.58s1.08.77,1.74,1.44c.79.79,1.35,1.51,1.67,2.16.32.65.46,1.26.4,1.85s-.33,1.13-.83,1.62c-.65.65-1.39.93-2.23.83-1-.12-2.14-.81-3.4-2.07ZM57.77,556.25c1.11,1.11,1.97,1.71,2.59,1.82.62.11,1.13-.03,1.51-.41.38-.38.51-.88.41-1.51-.11-.63-.71-1.49-1.82-2.59-1.11-1.11-1.97-1.71-2.6-1.82-.62-.11-1.13.04-1.51.42s-.52.84-.43,1.39c.12.69.74,1.6,1.85,2.7Z"/>
    <path class="cls-10" d="M64.68,545.81l-.76.89c-.4-.25-.74-.38-1.02-.4-.46-.01-.85.15-1.18.47-.26.26-.42.57-.47.91-.07.45,0,.93.21,1.45.21.51.66,1.11,1.32,1.79-.11-.5-.09-.97.05-1.41.14-.43.37-.81.68-1.12.55-.55,1.22-.82,2.02-.8s1.51.35,2.15.99c.42.42.72.91.9,1.45.18.54.21,1.07.08,1.58-.12.51-.39.97-.79,1.37-.69.69-1.5,1-2.44.93-.94-.07-1.99-.69-3.16-1.85-1.3-1.3-2.01-2.49-2.12-3.56-.09-.93.21-1.76.92-2.47.53-.53,1.11-.81,1.75-.86s1.25.17,1.84.62ZM64.21,552.09c.29.29.62.5,1,.64.38.14.75.17,1.1.09.35-.08.65-.24.89-.48.35-.35.51-.79.48-1.32-.03-.53-.29-1.04-.77-1.52-.46-.47-.96-.71-1.47-.73-.52-.02-.96.16-1.34.53-.37.37-.56.83-.55,1.35,0,.53.23,1.01.66,1.44Z"/>
    <path class="cls-10" d="M70.43,550.46l-5.01-8.91.66-.66,5.01,8.91-.67.67Z"/>
    <path class="cls-10" d="M70,544.02c-.8-.8-1.36-1.52-1.68-2.17s-.45-1.27-.39-1.85.33-1.12.82-1.61c.36-.36.75-.6,1.17-.73s.85-.14,1.3-.05c.45.1.92.29,1.42.58.5.29,1.08.77,1.74,1.44.79.79,1.35,1.51,1.67,2.16.32.65.46,1.27.4,1.85-.06.59-.33,1.13-.83,1.62-.65.65-1.39.93-2.23.83-1-.12-2.14-.81-3.4-2.07ZM70.85,543.17c1.11,1.11,1.97,1.71,2.59,1.82.62.11,1.13-.03,1.51-.41.38-.38.52-.88.41-1.51-.11-.63-.71-1.49-1.82-2.59-1.11-1.11-1.97-1.71-2.6-1.82-.62-.11-1.13.04-1.51.42s-.52.84-.43,1.39c.12.7.74,1.6,1.85,2.7Z"/>
    <path class="cls-10" d="M76.77,540.33l.72-.94c.56.37,1.06.55,1.5.53s.82-.2,1.14-.52c.39-.39.58-.85.58-1.39,0-.54-.2-1.01-.6-1.4s-.82-.57-1.31-.57-.93.19-1.32.58c-.16.16-.32.38-.49.68l-.63-.82c.06-.05.11-.09.14-.12.35-.35.58-.76.67-1.23.1-.47-.04-.89-.43-1.27-.3-.3-.66-.45-1.06-.45s-.77.17-1.09.5-.49.69-.5,1.11c-.01.42.15.86.5,1.32l-.97.68c-.45-.65-.65-1.31-.6-1.98.05-.66.35-1.26.88-1.79.37-.37.79-.63,1.25-.78s.92-.17,1.35-.06c.44.11.81.32,1.11.62.29.29.48.63.56,1.03.08.39.04.82-.12,1.26.49-.31.99-.42,1.5-.36.51.07.98.32,1.42.76.59.59.87,1.3.85,2.14s-.36,1.58-1.01,2.24c-.59.59-1.26.9-2,.94-.74.04-1.42-.2-2.04-.7Z"/>
    <path class="cls-10" d="M83.5,537.38l-5.01-8.91.66-.66,5.01,8.91-.67.67Z"/>
    <path class="cls-10" d="M89.94,529.13l.79.79-4.45,4.45c-.21-.19-.36-.42-.48-.67-.19-.42-.31-.9-.35-1.44-.04-.54-.02-1.24.06-2.1.13-1.33.15-2.3.06-2.91s-.3-1.07-.61-1.38c-.33-.33-.72-.49-1.18-.48-.46,0-.88.2-1.25.58-.4.4-.6.83-.6,1.31,0,.48.21.93.63,1.36l-.94.76c-.58-.69-.84-1.39-.79-2.11.05-.71.39-1.39,1.03-2.03s1.34-.98,2.07-1c.73-.02,1.37.24,1.9.77.27.27.48.59.63.96.15.37.24.83.27,1.37.03.54,0,1.36-.09,2.46-.08.91-.12,1.51-.11,1.8,0,.29.04.55.1.8l3.3-3.3Z"/>
    <path class="cls-10" d="M88.3,525.72c-.8-.8-1.35-1.52-1.68-2.17-.32-.65-.45-1.27-.39-1.85.06-.59.33-1.12.82-1.61.36-.36.75-.61,1.17-.73.42-.13.85-.14,1.3-.04.45.1.93.29,1.42.58s1.07.77,1.74,1.44c.79.79,1.35,1.51,1.67,2.16.32.65.46,1.27.4,1.85-.06.59-.33,1.13-.83,1.62-.65.65-1.39.93-2.23.83-1-.12-2.14-.81-3.4-2.07ZM89.15,524.87c1.11,1.11,1.97,1.71,2.59,1.82.62.11,1.13-.03,1.51-.41.38-.38.52-.88.41-1.51s-.71-1.49-1.82-2.59-1.97-1.71-2.6-1.82c-.62-.11-1.13.04-1.51.42s-.52.84-.43,1.39c.12.69.74,1.59,1.85,2.7Z"/>
    <path class="cls-10" d="M100.4,518.67l.79.79-4.45,4.45c-.21-.19-.36-.42-.48-.67-.19-.42-.31-.9-.35-1.44-.04-.54-.02-1.24.06-2.1.13-1.33.15-2.3.06-2.91s-.3-1.07-.61-1.38c-.33-.33-.72-.49-1.18-.48-.46,0-.88.2-1.25.58-.4.4-.6.83-.6,1.31s.21.93.63,1.36l-.94.76c-.58-.69-.84-1.39-.79-2.11.05-.71.39-1.39,1.03-2.03s1.34-.98,2.07-1c.73-.02,1.37.24,1.9.77.27.27.48.59.63.96.15.37.24.83.27,1.37.03.54,0,1.36-.09,2.46-.08.91-.12,1.51-.11,1.8,0,.29.04.55.1.8l3.3-3.3Z"/>
    <path class="cls-10" d="M104.73,515.93l-1.61-1.61-2.92,2.92-.76-.76-1.29-7.43.67-.68,4.36,4.36.91-.91.76.76-.91.91,1.61,1.61-.83.83ZM102.36,513.56l-3.04-3.04.93,5.14,2.11-2.11Z"/>
    <line class="cls-19" x1="135.9" y1="497.7" x2="135.9" y2="504.4"/>
    <path class="cls-10" d="M102.65,543.14l-.76.89c-.4-.25-.74-.38-1.02-.4-.46-.01-.85.15-1.18.47-.26.26-.42.57-.47.92-.07.45,0,.93.21,1.45.21.51.66,1.11,1.32,1.79-.11-.5-.09-.97.05-1.41s.37-.81.68-1.12c.55-.55,1.22-.82,2.02-.8.79.02,1.51.35,2.15.99.42.42.72.91.9,1.45.18.54.21,1.07.08,1.58-.12.51-.39.97-.79,1.37-.69.69-1.5,1-2.44.93-.94-.07-1.99-.69-3.16-1.85-1.3-1.3-2.01-2.49-2.12-3.56-.09-.93.21-1.76.92-2.47.53-.53,1.11-.82,1.75-.86s1.25.17,1.84.62ZM102.18,549.42c.29.29.62.5,1,.63.38.14.75.17,1.1.09.35-.08.65-.24.89-.48.35-.35.51-.79.48-1.32-.03-.53-.29-1.04-.77-1.52-.46-.47-.96-.71-1.47-.73-.52-.02-.96.16-1.34.54s-.56.82-.55,1.35c0,.53.23,1.01.66,1.45Z"/>
    <path class="cls-10" d="M108.4,547.79l-5.01-8.91.66-.66,5.01,8.91-.67.67Z"/>
    <path class="cls-10" d="M113.94,542.02l-1.61-1.61-2.92,2.92-.76-.76-1.29-7.43.68-.68,4.36,4.36.91-.91.76.76-.91.91,1.61,1.61-.83.83ZM111.57,539.65l-3.04-3.04.93,5.14,2.11-2.11Z"/>
    <path class="cls-10" d="M118.85,537.33l-5.01-8.91.66-.66,5.01,8.91-.67.67Z"/>
    <path class="cls-10" d="M125.29,529.08l.79.79-4.45,4.45c-.21-.19-.36-.42-.48-.67-.19-.42-.31-.9-.35-1.44-.04-.54-.03-1.24.06-2.1.13-1.33.15-2.3.06-2.91s-.3-1.07-.61-1.38c-.33-.33-.72-.49-1.18-.48-.46,0-.88.2-1.25.58-.4.4-.6.84-.6,1.31,0,.48.21.93.63,1.35l-.94.76c-.58-.69-.84-1.39-.79-2.11.05-.71.39-1.39,1.03-2.03.65-.65,1.34-.98,2.07-1,.73-.02,1.37.24,1.9.77.27.27.48.59.63.96.15.37.24.83.27,1.37.03.54,0,1.36-.09,2.46-.08.91-.12,1.51-.11,1.8,0,.29.04.55.1.8l3.3-3.3Z"/>
    <path class="cls-10" d="M123.65,525.67c-.8-.8-1.35-1.52-1.68-2.17-.32-.65-.45-1.27-.39-1.85.06-.59.33-1.12.82-1.62.36-.36.75-.6,1.17-.73.42-.13.85-.14,1.3-.05s.92.29,1.42.58c.5.29,1.08.77,1.74,1.44.79.79,1.35,1.51,1.67,2.16.32.65.46,1.26.4,1.85-.06.59-.33,1.13-.83,1.62-.65.65-1.39.93-2.23.83-1-.12-2.14-.81-3.4-2.07ZM124.5,524.82c1.11,1.11,1.97,1.71,2.59,1.82.62.11,1.13-.03,1.51-.41.38-.38.51-.88.41-1.51-.11-.63-.71-1.49-1.82-2.59-1.11-1.11-1.97-1.72-2.6-1.82-.62-.11-1.13.04-1.51.42-.38.38-.52.84-.43,1.39.12.7.74,1.6,1.85,2.7Z"/>
    <path class="cls-10" d="M135.75,518.62l.79.79-4.45,4.45c-.21-.19-.36-.42-.48-.67-.19-.42-.31-.9-.35-1.44-.04-.54-.03-1.24.06-2.1.13-1.33.15-2.3.06-2.91s-.3-1.07-.61-1.38c-.33-.33-.72-.49-1.18-.48-.46,0-.88.2-1.25.58-.4.4-.6.84-.6,1.31,0,.48.21.93.63,1.35l-.94.76c-.58-.69-.84-1.39-.79-2.11.05-.71.39-1.39,1.03-2.03.65-.65,1.34-.98,2.07-1,.73-.02,1.37.24,1.9.77.27.27.48.59.63.96.15.37.24.83.27,1.37.03.54,0,1.36-.09,2.46-.08.91-.12,1.51-.11,1.8,0,.29.04.55.1.8l3.3-3.3Z"/>
    <path class="cls-10" d="M140.08,515.88l-1.61-1.61-2.92,2.92-.76-.76-1.29-7.44.67-.67,4.36,4.36.91-.91.76.76-.91.91,1.61,1.61-.83.83ZM137.71,513.51l-3.04-3.04.93,5.14,2.11-2.11Z"/>
    <line class="cls-19" x1="171.4" y1="497.7" x2="171.4" y2="504.4"/>
    <path class="cls-10" d="M138.15,543.14l-.76.89c-.4-.25-.74-.38-1.02-.4-.46-.01-.85.15-1.18.47-.26.26-.42.57-.47.92-.07.45,0,.93.21,1.45.21.51.66,1.11,1.32,1.79-.11-.5-.09-.97.05-1.41s.37-.81.68-1.12c.55-.55,1.22-.82,2.02-.8.79.02,1.51.35,2.15.99.42.42.72.91.9,1.45.18.54.21,1.07.08,1.58-.12.51-.39.97-.79,1.37-.69.69-1.5,1-2.44.93-.94-.07-1.99-.69-3.16-1.85-1.3-1.3-2.01-2.49-2.12-3.56-.09-.93.21-1.76.92-2.47.53-.53,1.11-.82,1.75-.86s1.25.17,1.84.62ZM137.68,549.42c.29.29.62.5,1,.63.38.14.75.17,1.1.09.35-.08.65-.24.89-.48.35-.35.51-.79.48-1.32-.03-.53-.29-1.04-.77-1.52-.46-.47-.96-.71-1.47-.73-.52-.02-.96.16-1.34.54s-.56.82-.55,1.35c0,.53.23,1.01.66,1.45Z"/>
    <path class="cls-10" d="M143.9,547.79l-5.01-8.91.66-.66,5.01,8.91-.67.67Z"/>
    <path class="cls-10" d="M145.02,542.91l.79-.94c.49.36.96.53,1.4.5.45-.02.83-.2,1.17-.53.4-.4.58-.88.56-1.46-.02-.57-.28-1.11-.78-1.61-.47-.47-.98-.71-1.51-.72-.54,0-1.02.2-1.45.63-.27.27-.45.57-.54.9-.09.33-.1.66-.03.98l-.88.67-2.81-4.11,3.35-3.35.79.79-2.69,2.69,1.45,2.17c.12-.69.41-1.25.85-1.7.59-.59,1.29-.88,2.1-.88.81,0,1.54.32,2.18.96.61.61.96,1.31,1.05,2.11.11.98-.2,1.84-.95,2.58-.61.61-1.28.94-2.01.98-.73.04-1.41-.19-2.03-.7Z"/>
    <path class="cls-10" d="M154.35,537.33l-5.01-8.91.66-.66,5.01,8.91-.67.67Z"/>
    <path class="cls-10" d="M160.79,529.08l.79.79-4.45,4.45c-.21-.19-.36-.42-.48-.67-.19-.42-.31-.9-.35-1.44-.04-.54-.03-1.24.06-2.1.13-1.33.15-2.3.06-2.91s-.3-1.07-.61-1.38c-.33-.33-.72-.49-1.18-.48-.46,0-.88.2-1.25.58-.4.4-.6.84-.6,1.31,0,.48.21.93.63,1.35l-.94.76c-.58-.69-.84-1.39-.79-2.11.05-.71.39-1.39,1.03-2.03.65-.65,1.34-.98,2.07-1,.73-.02,1.37.24,1.9.77.27.27.48.59.63.96.15.37.24.83.27,1.37.03.54,0,1.36-.09,2.46-.08.91-.12,1.51-.11,1.8,0,.29.04.55.1.8l3.3-3.3Z"/>
    <path class="cls-10" d="M159.15,525.67c-.8-.8-1.35-1.52-1.68-2.17-.32-.65-.45-1.27-.39-1.85.06-.59.33-1.12.82-1.62.36-.36.75-.6,1.17-.73.42-.13.85-.14,1.3-.05s.92.29,1.42.58c.5.29,1.08.77,1.74,1.44.79.79,1.35,1.51,1.67,2.16.32.65.46,1.26.4,1.85-.06.59-.33,1.13-.83,1.62-.65.65-1.39.93-2.23.83-1-.12-2.14-.81-3.4-2.07ZM160,524.82c1.11,1.11,1.97,1.71,2.59,1.82.62.11,1.13-.03,1.51-.41.38-.38.51-.88.41-1.51-.11-.63-.71-1.49-1.82-2.59-1.11-1.11-1.97-1.72-2.6-1.82-.62-.11-1.13.04-1.51.42-.38.38-.52.84-.43,1.39.12.7.74,1.6,1.85,2.7Z"/>
    <path class="cls-10" d="M171.25,518.62l.79.79-4.45,4.45c-.21-.19-.36-.42-.48-.67-.19-.42-.31-.9-.35-1.44-.04-.54-.03-1.24.06-2.1.13-1.33.15-2.3.06-2.91s-.3-1.07-.61-1.38c-.33-.33-.72-.49-1.18-.48-.46,0-.88.2-1.25.58-.4.4-.6.84-.6,1.31,0,.48.21.93.63,1.35l-.94.76c-.58-.69-.84-1.39-.79-2.11.05-.71.39-1.39,1.03-2.03.65-.65,1.34-.98,2.07-1,.73-.02,1.37.24,1.9.77.27.27.48.59.63.96.15.37.24.83.27,1.37.03.54,0,1.36-.09,2.46-.08.91-.12,1.51-.11,1.8,0,.29.04.55.1.8l3.3-3.3Z"/>
    <path class="cls-10" d="M175.58,515.88l-1.61-1.61-2.92,2.92-.76-.76-1.29-7.44.67-.67,4.36,4.36.91-.91.76.76-.91.91,1.61,1.61-.83.83ZM173.21,513.51l-3.04-3.04.93,5.14,2.11-2.11Z"/>
    <line class="cls-19" x1="206.8" y1="497.7" x2="206.8" y2="504.4"/>
    <path class="cls-10" d="M173.55,543.14l-.76.89c-.4-.25-.74-.38-1.02-.4-.46-.01-.85.15-1.18.47-.26.26-.42.57-.47.92-.07.45,0,.93.21,1.45.21.51.66,1.11,1.32,1.79-.11-.5-.09-.97.05-1.41s.37-.81.68-1.12c.55-.55,1.22-.82,2.02-.8.79.02,1.51.35,2.15.99.42.42.72.91.9,1.45.18.54.21,1.07.08,1.58-.12.51-.39.97-.79,1.37-.69.69-1.5,1-2.44.93-.94-.07-1.99-.69-3.16-1.85-1.3-1.3-2.01-2.49-2.12-3.56-.09-.93.21-1.76.92-2.47.53-.53,1.11-.82,1.75-.86s1.25.17,1.84.62ZM173.08,549.42c.29.29.62.5,1,.63.38.14.75.17,1.1.09.35-.08.65-.24.89-.48.35-.35.51-.79.48-1.32-.03-.53-.29-1.04-.77-1.52-.46-.47-.96-.71-1.47-.73-.52-.02-.96.16-1.34.54s-.56.82-.55,1.35c0,.53.23,1.01.66,1.45Z"/>
    <path class="cls-10" d="M179.3,547.79l-5.01-8.91.66-.66,5.01,8.91-.67.67Z"/>
    <path class="cls-10" d="M176.39,538.77l-.79-.79,4.36-4.36.64.64c.03.89.21,1.92.54,3.09.33,1.18.79,2.28,1.36,3.31.4.73.91,1.45,1.53,2.17l-.85.85c-.52-.54-1.06-1.28-1.61-2.23s-.99-1.96-1.31-3.03c-.32-1.07-.51-2.05-.57-2.95l-3.3,3.3Z"/>
    <path class="cls-10" d="M189.75,537.33l-5.01-8.91.66-.66,5.01,8.91-.67.67Z"/>
    <path class="cls-10" d="M196.19,529.08l.79.79-4.45,4.45c-.21-.19-.36-.42-.48-.67-.19-.42-.31-.9-.35-1.44-.04-.54-.03-1.24.06-2.1.13-1.33.15-2.3.06-2.91s-.3-1.07-.61-1.38c-.33-.33-.72-.49-1.18-.48-.46,0-.88.2-1.25.58-.4.4-.6.84-.6,1.31,0,.48.21.93.63,1.35l-.94.76c-.58-.69-.84-1.39-.79-2.11.05-.71.39-1.39,1.03-2.03.65-.65,1.34-.98,2.07-1,.73-.02,1.37.24,1.9.77.27.27.48.59.63.96.15.37.24.83.27,1.37.03.54,0,1.36-.09,2.46-.08.91-.12,1.51-.11,1.8,0,.29.04.55.1.8l3.3-3.3Z"/>
    <path class="cls-10" d="M194.55,525.67c-.8-.8-1.35-1.52-1.68-2.17-.32-.65-.45-1.27-.39-1.85.06-.59.33-1.12.82-1.62.36-.36.75-.6,1.17-.73.42-.13.85-.14,1.3-.05s.92.29,1.42.58c.5.29,1.08.77,1.74,1.44.79.79,1.35,1.51,1.67,2.16.32.65.46,1.26.4,1.85-.06.59-.33,1.13-.83,1.62-.65.65-1.39.93-2.23.83-1-.12-2.14-.81-3.4-2.07ZM195.4,524.82c1.11,1.11,1.97,1.71,2.59,1.82.62.11,1.13-.03,1.51-.41.38-.38.51-.88.41-1.51-.11-.63-.71-1.49-1.82-2.59-1.11-1.11-1.97-1.72-2.6-1.82-.62-.11-1.13.04-1.51.42-.38.38-.52.84-.43,1.39.12.7.74,1.6,1.85,2.7Z"/>
    <path class="cls-10" d="M206.65,518.62l.79.79-4.45,4.45c-.21-.19-.36-.42-.48-.67-.19-.42-.31-.9-.35-1.44-.04-.54-.03-1.24.06-2.1.13-1.33.15-2.3.06-2.91s-.3-1.07-.61-1.38c-.33-.33-.72-.49-1.18-.48-.46,0-.88.2-1.25.58-.4.4-.6.84-.6,1.31,0,.48.21.93.63,1.35l-.94.76c-.58-.69-.84-1.39-.79-2.11.05-.71.39-1.39,1.03-2.03.65-.65,1.34-.98,2.07-1,.73-.02,1.37.24,1.9.77.27.27.48.59.63.96.15.37.24.83.27,1.37.03.54,0,1.36-.09,2.46-.08.91-.12,1.51-.11,1.8,0,.29.04.55.1.8l3.3-3.3Z"/>
    <path class="cls-10" d="M210.98,515.88l-1.61-1.61-2.92,2.92-.76-.76-1.29-7.44.67-.67,4.36,4.36.91-.91.76.76-.91.91,1.61,1.61-.83.83ZM208.61,513.51l-3.04-3.04.93,5.14,2.11-2.11Z"/>
    <line class="cls-19" x1="242.3" y1="497.7" x2="242.3" y2="504.4"/>
    <path class="cls-10" d="M209.05,543.14l-.76.89c-.4-.25-.74-.38-1.02-.4-.46-.01-.85.15-1.18.47-.26.26-.42.57-.47.92-.07.45,0,.93.21,1.45.21.51.66,1.11,1.32,1.79-.11-.5-.09-.97.05-1.41s.37-.81.68-1.12c.55-.55,1.22-.82,2.02-.8.79.02,1.51.35,2.15.99.42.42.72.91.9,1.45.18.54.21,1.07.08,1.58-.12.51-.39.97-.79,1.37-.69.69-1.5,1-2.44.93-.94-.07-1.99-.69-3.16-1.85-1.3-1.3-2.01-2.49-2.12-3.56-.09-.93.21-1.76.92-2.47.53-.53,1.11-.82,1.75-.86s1.25.17,1.84.62ZM208.58,549.42c.29.29.62.5,1,.63.38.14.75.17,1.1.09.35-.08.65-.24.89-.48.35-.35.51-.79.48-1.32-.03-.53-.29-1.04-.77-1.52-.46-.47-.96-.71-1.47-.73-.52-.02-.96.16-1.34.54s-.56.82-.55,1.35c0,.53.23,1.01.66,1.45Z"/>
    <path class="cls-10" d="M214.8,547.79l-5.01-8.91.66-.66,5.01,8.91-.67.67Z"/>
    <path class="cls-10" d="M215.31,539.75c-.47.22-.9.29-1.3.23-.4-.07-.76-.26-1.08-.59-.49-.49-.73-1.08-.71-1.76s.32-1.32.9-1.91c.59-.59,1.23-.89,1.93-.91.7-.02,1.29.22,1.78.71.31.31.5.67.57,1.06.07.39,0,.82-.21,1.28.55-.28,1.08-.38,1.6-.29.52.08.98.33,1.4.75.58.58.86,1.26.84,2.06-.01.8-.36,1.53-1.02,2.2-.66.67-1.4,1-2.2,1.02-.8.01-1.49-.27-2.08-.86-.44-.44-.69-.92-.77-1.43s.04-1.04.34-1.55ZM213.74,538.51c.32.32.68.48,1.09.47s.77-.17,1.1-.5c.32-.32.48-.68.48-1.08,0-.4-.14-.75-.43-1.04s-.66-.45-1.08-.45c-.42,0-.78.16-1.09.47-.32.32-.48.68-.48,1.09,0,.41.13.76.41,1.04ZM216.58,541.89c.24.24.52.41.85.52.33.11.67.11,1.01.01.34-.1.64-.28.89-.53.39-.39.59-.85.6-1.36,0-.51-.19-.96-.58-1.35s-.86-.6-1.38-.59c-.53,0-.99.21-1.38.6-.39.39-.58.84-.58,1.35,0,.51.19.96.58,1.35Z"/>
    <path class="cls-10" d="M225.25,537.33l-5.01-8.91.66-.66,5.01,8.91-.67.67Z"/>
    <path class="cls-10" d="M231.69,529.08l.79.79-4.45,4.45c-.21-.19-.36-.42-.48-.67-.19-.42-.31-.9-.35-1.44-.04-.54-.03-1.24.06-2.1.13-1.33.15-2.3.06-2.91s-.3-1.07-.61-1.38c-.33-.33-.72-.49-1.18-.48-.46,0-.88.2-1.25.58-.4.4-.6.84-.6,1.31,0,.48.21.93.63,1.35l-.94.76c-.58-.69-.84-1.39-.79-2.11.05-.71.39-1.39,1.03-2.03.65-.65,1.34-.98,2.07-1,.73-.02,1.37.24,1.9.77.27.27.48.59.63.96.15.37.24.83.27,1.37.03.54,0,1.36-.09,2.46-.08.91-.12,1.51-.11,1.8,0,.29.04.55.1.8l3.3-3.3Z"/>
    <path class="cls-10" d="M230.05,525.67c-.8-.8-1.35-1.52-1.68-2.17-.32-.65-.45-1.27-.39-1.85.06-.59.33-1.12.82-1.62.36-.36.75-.6,1.17-.73.42-.13.85-.14,1.3-.05s.92.29,1.42.58c.5.29,1.08.77,1.74,1.44.79.79,1.35,1.51,1.67,2.16.32.65.46,1.26.4,1.85-.06.59-.33,1.13-.83,1.62-.65.65-1.39.93-2.23.83-1-.12-2.14-.81-3.4-2.07ZM230.9,524.82c1.11,1.11,1.97,1.71,2.59,1.82.62.11,1.13-.03,1.51-.41.38-.38.51-.88.41-1.51-.11-.63-.71-1.49-1.82-2.59-1.11-1.11-1.97-1.72-2.6-1.82-.62-.11-1.13.04-1.51.42-.38.38-.52.84-.43,1.39.12.7.74,1.6,1.85,2.7Z"/>
    <path class="cls-10" d="M242.15,518.62l.79.79-4.45,4.45c-.21-.19-.36-.42-.48-.67-.19-.42-.31-.9-.35-1.44-.04-.54-.03-1.24.06-2.1.13-1.33.15-2.3.06-2.91s-.3-1.07-.61-1.38c-.33-.33-.72-.49-1.18-.48-.46,0-.88.2-1.25.58-.4.4-.6.84-.6,1.31,0,.48.21.93.63,1.35l-.94.76c-.58-.69-.84-1.39-.79-2.11.05-.71.39-1.39,1.03-2.03.65-.65,1.34-.98,2.07-1,.73-.02,1.37.24,1.9.77.27.27.48.59.63.96.15.37.24.83.27,1.37.03.54,0,1.36-.09,2.46-.08.91-.12,1.51-.11,1.8,0,.29.04.55.1.8l3.3-3.3Z"/>
    <path class="cls-10" d="M246.48,515.88l-1.61-1.61-2.92,2.92-.76-.76-1.29-7.44.67-.67,4.36,4.36.91-.91.76.76-.91.91,1.61,1.61-.83.83ZM244.11,513.51l-3.04-3.04.93,5.14,2.11-2.11Z"/>
    <line class="cls-19" x1="277.7" y1="497.7" x2="277.7" y2="504.4"/>
    <path class="cls-10" d="M239.25,548.34l-.76.89c-.4-.25-.74-.38-1.02-.4-.46-.01-.85.15-1.18.47-.26.26-.42.57-.47.91-.07.45,0,.93.21,1.45.21.51.66,1.11,1.32,1.79-.11-.5-.09-.97.05-1.41s.37-.81.68-1.12c.55-.55,1.22-.82,2.02-.8.79.02,1.51.35,2.15.99.42.42.72.91.9,1.45.18.54.21,1.07.08,1.58-.12.51-.39.97-.79,1.37-.69.69-1.5,1-2.44.92-.94-.07-1.99-.69-3.16-1.85-1.3-1.3-2.01-2.49-2.12-3.56-.09-.93.21-1.76.92-2.47.53-.53,1.11-.82,1.75-.86.64-.04,1.25.17,1.84.62ZM238.78,554.62c.29.29.62.5,1,.64.38.14.75.17,1.1.09.35-.08.65-.24.89-.48.35-.35.51-.79.48-1.32-.03-.53-.29-1.04-.77-1.53-.46-.46-.96-.71-1.47-.73-.52-.02-.96.16-1.34.53-.37.37-.56.83-.55,1.35,0,.53.23,1.01.66,1.44Z"/>
    <path class="cls-10" d="M245,552.99l-5.01-8.91.66-.66,5.01,8.91-.67.67Z"/>
    <path class="cls-10" d="M251,546.76l-.83.83-5.27-5.27c0,.39-.08.84-.21,1.35-.13.51-.28.95-.44,1.3l-.8-.8c.25-.68.39-1.35.42-2,.04-.65-.02-1.2-.17-1.63l.53-.53,6.76,6.76Z"/>
    <path class="cls-10" d="M249.8,541.32c-.8-.8-1.36-1.52-1.68-2.17-.32-.65-.45-1.27-.39-1.85s.33-1.12.82-1.62c.36-.36.75-.6,1.17-.73.42-.13.85-.14,1.3-.05.45.1.92.29,1.42.58.5.29,1.08.77,1.74,1.44.79.79,1.35,1.51,1.67,2.16.32.65.46,1.26.4,1.85-.06.59-.33,1.13-.83,1.62-.65.65-1.39.93-2.23.83-1-.12-2.14-.81-3.4-2.07ZM250.65,540.47c1.11,1.11,1.97,1.71,2.59,1.82.62.11,1.13-.03,1.51-.41.38-.38.52-.88.41-1.51-.11-.63-.71-1.49-1.82-2.59-1.11-1.11-1.97-1.72-2.6-1.82-.62-.11-1.13.04-1.51.42-.38.38-.52.84-.43,1.39.12.7.74,1.6,1.85,2.7Z"/>
    <path class="cls-10" d="M260.68,537.3l-5.01-8.91.66-.66,5.01,8.91-.67.67Z"/>
    <path class="cls-10" d="M267.12,529.05l.79.79-4.45,4.45c-.21-.19-.36-.42-.48-.67-.19-.42-.31-.9-.35-1.44-.04-.54-.03-1.24.06-2.1.13-1.33.15-2.3.06-2.91-.09-.61-.3-1.07-.61-1.38-.33-.33-.72-.49-1.18-.48-.46,0-.88.2-1.25.58-.4.4-.6.83-.6,1.31,0,.48.21.93.63,1.36l-.94.76c-.58-.69-.84-1.39-.79-2.11s.39-1.39,1.03-2.03c.65-.65,1.34-.98,2.07-1,.73-.02,1.37.24,1.9.77.27.27.48.59.63.96.15.37.24.83.27,1.37.03.54,0,1.36-.09,2.46-.08.91-.12,1.51-.11,1.8,0,.29.04.55.1.8l3.3-3.3Z"/>
    <path class="cls-10" d="M265.48,525.63c-.8-.8-1.35-1.52-1.68-2.17-.32-.65-.45-1.27-.39-1.85.06-.59.33-1.12.82-1.61.36-.36.75-.61,1.17-.73.42-.13.85-.14,1.3-.05s.92.29,1.42.58c.5.29,1.08.77,1.74,1.44.79.79,1.35,1.51,1.67,2.16s.46,1.27.4,1.85c-.06.59-.33,1.13-.83,1.62-.65.65-1.39.93-2.23.83-1-.12-2.14-.81-3.4-2.07ZM266.33,524.79c1.11,1.11,1.97,1.71,2.59,1.82.62.11,1.13-.03,1.51-.41.38-.38.51-.88.41-1.51-.11-.62-.71-1.49-1.82-2.59-1.11-1.11-1.97-1.71-2.6-1.82-.62-.1-1.13.04-1.51.42-.38.38-.52.84-.43,1.39.12.7.74,1.6,1.85,2.7Z"/>
    <path class="cls-10" d="M277.58,518.59l.79.79-4.45,4.45c-.21-.19-.36-.42-.48-.67-.19-.42-.31-.9-.35-1.44-.04-.54-.02-1.25.06-2.1.13-1.33.15-2.3.06-2.91-.09-.61-.3-1.07-.61-1.38-.33-.33-.72-.49-1.18-.48-.46,0-.88.2-1.25.58-.4.4-.6.83-.6,1.31,0,.48.21.93.63,1.36l-.94.76c-.58-.69-.84-1.39-.79-2.11.05-.71.39-1.39,1.03-2.03.65-.65,1.34-.98,2.07-1s1.37.24,1.9.77c.27.27.48.59.63.96.15.37.24.83.27,1.37.03.54,0,1.36-.09,2.46-.08.91-.12,1.51-.11,1.8,0,.29.04.55.1.8l3.3-3.3Z"/>
    <path class="cls-10" d="M281.91,515.84l-1.61-1.61-2.92,2.92-.76-.76-1.29-7.43.67-.68,4.36,4.36.91-.91.76.76-.91.91,1.61,1.61-.83.83ZM279.54,513.47l-3.04-3.04.93,5.14,2.11-2.11Z"/>
    <line class="cls-19" x1="313.1" y1="497.7" x2="313.1" y2="504.4"/>
    <path class="cls-10" d="M274.65,548.34l-.76.89c-.4-.25-.74-.38-1.02-.4-.46-.01-.85.15-1.18.47-.26.26-.42.57-.47.91-.07.45,0,.93.21,1.45.21.51.66,1.11,1.32,1.79-.11-.5-.09-.97.05-1.41s.37-.81.68-1.12c.55-.55,1.22-.82,2.02-.8.79.02,1.51.35,2.15.99.42.42.72.91.9,1.45.18.54.21,1.07.08,1.58-.12.51-.39.97-.79,1.37-.69.69-1.5,1-2.44.92-.94-.07-1.99-.69-3.16-1.85-1.3-1.3-2.01-2.49-2.12-3.56-.09-.93.21-1.76.92-2.47.53-.53,1.11-.82,1.75-.86.64-.04,1.25.17,1.84.62ZM274.18,554.62c.29.29.62.5,1,.64.38.14.75.17,1.1.09.35-.08.65-.24.89-.48.35-.35.51-.79.48-1.32-.03-.53-.29-1.04-.77-1.53-.46-.46-.96-.71-1.47-.73-.52-.02-.96.16-1.34.53-.37.37-.56.83-.55,1.35,0,.53.23,1.01.66,1.44Z"/>
    <path class="cls-10" d="M280.4,552.99l-5.01-8.91.66-.66,5.01,8.91-.67.67Z"/>
    <path class="cls-10" d="M286.4,546.76l-.83.83-5.27-5.27c0,.39-.08.84-.21,1.35-.13.51-.28.95-.44,1.3l-.8-.8c.25-.68.39-1.35.42-2,.04-.65-.02-1.2-.17-1.63l.53-.53,6.76,6.76Z"/>
    <path class="cls-10" d="M291.17,541.99l-1.61-1.61-2.92,2.92-.76-.76-1.29-7.44.68-.67,4.36,4.36.91-.91.76.76-.91.91,1.61,1.61-.83.83ZM288.8,539.62l-3.04-3.04.93,5.14,2.11-2.11Z"/>
    <path class="cls-10" d="M296.08,537.3l-5.01-8.91.66-.66,5.01,8.91-.67.67Z"/>
    <path class="cls-10" d="M302.52,529.05l.79.79-4.45,4.45c-.21-.19-.36-.42-.48-.67-.19-.42-.31-.9-.35-1.44-.04-.54-.03-1.24.06-2.1.13-1.33.15-2.3.06-2.91-.09-.61-.3-1.07-.61-1.38-.33-.33-.72-.49-1.18-.48-.46,0-.88.2-1.25.58-.4.4-.6.83-.6,1.31,0,.48.21.93.63,1.36l-.94.76c-.58-.69-.84-1.39-.79-2.11s.39-1.39,1.03-2.03c.65-.65,1.34-.98,2.07-1,.73-.02,1.37.24,1.9.77.27.27.48.59.63.96.15.37.24.83.27,1.37.03.54,0,1.36-.09,2.46-.08.91-.12,1.51-.11,1.8,0,.29.04.55.1.8l3.3-3.3Z"/>
    <path class="cls-10" d="M300.88,525.63c-.8-.8-1.35-1.52-1.68-2.17-.32-.65-.45-1.27-.39-1.85.06-.59.33-1.12.82-1.61.36-.36.75-.61,1.17-.73.42-.13.85-.14,1.3-.05s.92.29,1.42.58c.5.29,1.08.77,1.74,1.44.79.79,1.35,1.51,1.67,2.16s.46,1.27.4,1.85c-.06.59-.33,1.13-.83,1.62-.65.65-1.39.93-2.23.83-1-.12-2.14-.81-3.4-2.07ZM301.73,524.79c1.11,1.11,1.97,1.71,2.59,1.82.62.11,1.13-.03,1.51-.41.38-.38.51-.88.41-1.51-.11-.62-.71-1.49-1.82-2.59-1.11-1.11-1.97-1.71-2.6-1.82-.62-.1-1.13.04-1.51.42-.38.38-.52.84-.43,1.39.12.7.74,1.6,1.85,2.7Z"/>
    <path class="cls-10" d="M312.98,518.59l.79.79-4.45,4.45c-.21-.19-.36-.42-.48-.67-.19-.42-.31-.9-.35-1.44-.04-.54-.02-1.25.06-2.1.13-1.33.15-2.3.06-2.91-.09-.61-.3-1.07-.61-1.38-.33-.33-.72-.49-1.18-.48-.46,0-.88.2-1.25.58-.4.4-.6.83-.6,1.31,0,.48.21.93.63,1.36l-.94.76c-.58-.69-.84-1.39-.79-2.11.05-.71.39-1.39,1.03-2.03.65-.65,1.34-.98,2.07-1s1.37.24,1.9.77c.27.27.48.59.63.96.15.37.24.83.27,1.37.03.54,0,1.36-.09,2.46-.08.91-.12,1.51-.11,1.8,0,.29.04.55.1.8l3.3-3.3Z"/>
    <path class="cls-10" d="M317.31,515.84l-1.61-1.61-2.92,2.92-.76-.76-1.29-7.43.67-.68,4.36,4.36.91-.91.76.76-.91.91,1.61,1.61-.83.83ZM314.94,513.47l-3.04-3.04.93,5.14,2.11-2.11Z"/>
    <line class="cls-19" x1="348.6" y1="497.7" x2="348.6" y2="504.4"/>
    <path class="cls-10" d="M310.15,548.34l-.76.89c-.4-.25-.74-.38-1.02-.4-.46-.01-.85.15-1.18.47-.26.26-.42.57-.47.91-.07.45,0,.93.21,1.45.21.51.66,1.11,1.32,1.79-.11-.5-.09-.97.05-1.41s.37-.81.68-1.12c.55-.55,1.22-.82,2.02-.8.79.02,1.51.35,2.15.99.42.42.72.91.9,1.45.18.54.21,1.07.08,1.58-.12.51-.39.97-.79,1.37-.69.69-1.5,1-2.44.92-.94-.07-1.99-.69-3.16-1.85-1.3-1.3-2.01-2.49-2.12-3.56-.09-.93.21-1.76.92-2.47.53-.53,1.11-.82,1.75-.86.64-.04,1.25.17,1.84.62ZM309.68,554.62c.29.29.62.5,1,.64.38.14.75.17,1.1.09.35-.08.65-.24.89-.48.35-.35.51-.79.48-1.32-.03-.53-.29-1.04-.77-1.53-.46-.46-.96-.71-1.47-.73-.52-.02-.96.16-1.34.53-.37.37-.56.83-.55,1.35,0,.53.23,1.01.66,1.44Z"/>
    <path class="cls-10" d="M315.9,552.99l-5.01-8.91.66-.66,5.01,8.91-.67.67Z"/>
    <path class="cls-10" d="M321.9,546.76l-.83.83-5.27-5.27c0,.39-.08.84-.21,1.35-.13.51-.28.95-.44,1.3l-.8-.8c.25-.68.39-1.35.42-2,.04-.65-.02-1.2-.17-1.63l.53-.53,6.76,6.76Z"/>
    <path class="cls-10" d="M318.22,538.74l-.79-.79,4.36-4.36.64.64c.03.88.21,1.92.54,3.09.33,1.18.79,2.28,1.36,3.31.4.73.91,1.45,1.53,2.17l-.85.85c-.52-.54-1.06-1.28-1.61-2.23s-.99-1.96-1.31-3.03c-.32-1.07-.51-2.05-.57-2.95l-3.3,3.3Z"/>
    <path class="cls-10" d="M331.58,537.3l-5.01-8.91.66-.66,5.01,8.91-.67.67Z"/>
    <path class="cls-10" d="M338.02,529.05l.79.79-4.45,4.45c-.21-.19-.36-.42-.48-.67-.19-.42-.31-.9-.35-1.44-.04-.54-.03-1.24.06-2.1.13-1.33.15-2.3.06-2.91-.09-.61-.3-1.07-.61-1.38-.33-.33-.72-.49-1.18-.48-.46,0-.88.2-1.25.58-.4.4-.6.83-.6,1.31,0,.48.21.93.63,1.36l-.94.76c-.58-.69-.84-1.39-.79-2.11s.39-1.39,1.03-2.03c.65-.65,1.34-.98,2.07-1,.73-.02,1.37.24,1.9.77.27.27.48.59.63.96.15.37.24.83.27,1.37.03.54,0,1.36-.09,2.46-.08.91-.12,1.51-.11,1.8,0,.29.04.55.1.8l3.3-3.3Z"/>
    <path class="cls-10" d="M336.38,525.63c-.8-.8-1.35-1.52-1.68-2.17-.32-.65-.45-1.27-.39-1.85.06-.59.33-1.12.82-1.61.36-.36.75-.61,1.17-.73.42-.13.85-.14,1.3-.05s.92.29,1.42.58c.5.29,1.08.77,1.74,1.44.79.79,1.35,1.51,1.67,2.16s.46,1.27.4,1.85c-.06.59-.33,1.13-.83,1.62-.65.65-1.39.93-2.23.83-1-.12-2.14-.81-3.4-2.07ZM337.23,524.79c1.11,1.11,1.97,1.71,2.59,1.82.62.11,1.13-.03,1.51-.41.38-.38.51-.88.41-1.51-.11-.62-.71-1.49-1.82-2.59-1.11-1.11-1.97-1.71-2.6-1.82-.62-.1-1.13.04-1.51.42-.38.38-.52.84-.43,1.39.12.7.74,1.6,1.85,2.7Z"/>
    <path class="cls-10" d="M348.48,518.59l.79.79-4.45,4.45c-.21-.19-.36-.42-.48-.67-.19-.42-.31-.9-.35-1.44-.04-.54-.02-1.25.06-2.1.13-1.33.15-2.3.06-2.91-.09-.61-.3-1.07-.61-1.38-.33-.33-.72-.49-1.18-.48-.46,0-.88.2-1.25.58-.4.4-.6.83-.6,1.31,0,.48.21.93.63,1.36l-.94.76c-.58-.69-.84-1.39-.79-2.11.05-.71.39-1.39,1.03-2.03.65-.65,1.34-.98,2.07-1s1.37.24,1.9.77c.27.27.48.59.63.96.15.37.24.83.27,1.37.03.54,0,1.36-.09,2.46-.08.91-.12,1.51-.11,1.8,0,.29.04.55.1.8l3.3-3.3Z"/>
    <path class="cls-10" d="M352.81,515.84l-1.61-1.61-2.92,2.92-.76-.76-1.29-7.43.67-.68,4.36,4.36.91-.91.76.76-.91.91,1.61,1.61-.83.83ZM350.44,513.47l-3.04-3.04.93,5.14,2.11-2.11Z"/>
    <line class="cls-19" x1="384" y1="497.7" x2="384" y2="504.4"/>
    <path class="cls-10" d="M345.55,548.34l-.76.89c-.4-.25-.74-.38-1.02-.4-.46-.01-.85.15-1.18.47-.26.26-.42.57-.47.91-.07.45,0,.93.21,1.45.21.51.66,1.11,1.32,1.79-.11-.5-.09-.97.05-1.41s.37-.81.68-1.12c.55-.55,1.22-.82,2.02-.8.79.02,1.51.35,2.15.99.42.42.72.91.9,1.45.18.54.21,1.07.08,1.58-.12.51-.39.97-.79,1.37-.69.69-1.5,1-2.44.92-.94-.07-1.99-.69-3.16-1.85-1.3-1.3-2.01-2.49-2.12-3.56-.09-.93.21-1.76.92-2.47.53-.53,1.11-.82,1.75-.86.64-.04,1.25.17,1.84.62ZM345.08,554.62c.29.29.62.5,1,.64.38.14.75.17,1.1.09.35-.08.65-.24.89-.48.35-.35.51-.79.48-1.32-.03-.53-.29-1.04-.77-1.53-.46-.46-.96-.71-1.47-.73-.52-.02-.96.16-1.34.53-.37.37-.56.83-.55,1.35,0,.53.23,1.01.66,1.44Z"/>
    <path class="cls-10" d="M351.3,552.99l-5.01-8.91.66-.66,5.01,8.91-.67.67Z"/>
    <path class="cls-10" d="M357.74,544.73l.79.79-4.45,4.45c-.21-.19-.36-.42-.48-.67-.19-.42-.31-.9-.35-1.44-.04-.54-.02-1.24.06-2.1.13-1.33.15-2.3.06-2.91-.09-.61-.3-1.07-.61-1.38-.33-.33-.72-.49-1.18-.48-.46,0-.88.2-1.25.58-.4.4-.6.84-.6,1.31s.21.93.63,1.35l-.94.76c-.58-.69-.84-1.39-.79-2.11.05-.71.39-1.39,1.03-2.03.65-.65,1.34-.98,2.07-1,.73-.02,1.37.24,1.9.77.27.27.48.59.63.96.15.37.24.83.27,1.37.03.54,0,1.36-.09,2.46-.08.91-.12,1.51-.11,1.8s.04.55.1.8l3.3-3.3Z"/>
    <path class="cls-10" d="M356.1,541.32c-.8-.8-1.36-1.52-1.68-2.17-.32-.65-.45-1.27-.39-1.85s.33-1.12.82-1.62c.36-.36.75-.6,1.17-.73.42-.13.85-.14,1.3-.05.45.1.92.29,1.42.58.5.29,1.08.77,1.74,1.44.79.79,1.35,1.51,1.67,2.16.32.65.46,1.26.4,1.85-.06.59-.33,1.13-.83,1.62-.65.65-1.39.93-2.23.83-1-.12-2.14-.81-3.4-2.07ZM356.95,540.47c1.11,1.11,1.97,1.71,2.59,1.82.62.11,1.13-.03,1.51-.41.38-.38.52-.88.41-1.51-.11-.63-.71-1.49-1.82-2.59-1.11-1.11-1.97-1.72-2.6-1.82-.62-.11-1.13.04-1.51.42-.38.38-.52.84-.43,1.39.12.7.74,1.6,1.85,2.7Z"/>
    <path class="cls-10" d="M366.98,537.3l-5.01-8.91.66-.66,5.01,8.91-.67.67Z"/>
    <path class="cls-10" d="M373.42,529.05l.79.79-4.45,4.45c-.21-.19-.36-.42-.48-.67-.19-.42-.31-.9-.35-1.44-.04-.54-.03-1.24.06-2.1.13-1.33.15-2.3.06-2.91-.09-.61-.3-1.07-.61-1.38-.33-.33-.72-.49-1.18-.48-.46,0-.88.2-1.25.58-.4.4-.6.83-.6,1.31,0,.48.21.93.63,1.36l-.94.76c-.58-.69-.84-1.39-.79-2.11s.39-1.39,1.03-2.03c.65-.65,1.34-.98,2.07-1,.73-.02,1.37.24,1.9.77.27.27.48.59.63.96.15.37.24.83.27,1.37.03.54,0,1.36-.09,2.46-.08.91-.12,1.51-.11,1.8,0,.29.04.55.1.8l3.3-3.3Z"/>
    <path class="cls-10" d="M371.78,525.63c-.8-.8-1.35-1.52-1.68-2.17-.32-.65-.45-1.27-.39-1.85.06-.59.33-1.12.82-1.61.36-.36.75-.61,1.17-.73.42-.13.85-.14,1.3-.05s.92.29,1.42.58c.5.29,1.08.77,1.74,1.44.79.79,1.35,1.51,1.67,2.16s.46,1.27.4,1.85c-.06.59-.33,1.13-.83,1.62-.65.65-1.39.93-2.23.83-1-.12-2.14-.81-3.4-2.07ZM372.63,524.79c1.11,1.11,1.97,1.71,2.59,1.82.62.11,1.13-.03,1.51-.41.38-.38.51-.88.41-1.51-.11-.62-.71-1.49-1.82-2.59-1.11-1.11-1.97-1.71-2.6-1.82-.62-.1-1.13.04-1.51.42-.38.38-.52.84-.43,1.39.12.7.74,1.6,1.85,2.7Z"/>
    <path class="cls-10" d="M383.88,518.59l.79.79-4.45,4.45c-.21-.19-.36-.42-.48-.67-.19-.42-.31-.9-.35-1.44-.04-.54-.02-1.25.06-2.1.13-1.33.15-2.3.06-2.91-.09-.61-.3-1.07-.61-1.38-.33-.33-.72-.49-1.18-.48-.46,0-.88.2-1.25.58-.4.4-.6.83-.6,1.31,0,.48.21.93.63,1.36l-.94.76c-.58-.69-.84-1.39-.79-2.11.05-.71.39-1.39,1.03-2.03.65-.65,1.34-.98,2.07-1s1.37.24,1.9.77c.27.27.48.59.63.96.15.37.24.83.27,1.37.03.54,0,1.36-.09,2.46-.08.91-.12,1.51-.11,1.8,0,.29.04.55.1.8l3.3-3.3Z"/>
    <path class="cls-10" d="M388.21,515.84l-1.61-1.61-2.92,2.92-.76-.76-1.29-7.43.67-.68,4.36,4.36.91-.91.76.76-.91.91,1.61,1.61-.83.83ZM385.84,513.47l-3.04-3.04.93,5.14,2.11-2.11Z"/>
    <line class="cls-19" x1="419.5" y1="497.7" x2="419.5" y2="504.4"/>
    <path class="cls-10" d="M381.05,548.34l-.76.89c-.4-.25-.74-.38-1.02-.4-.46-.01-.85.15-1.18.47-.26.26-.42.57-.47.91-.07.45,0,.93.21,1.45.21.51.66,1.11,1.32,1.79-.11-.5-.09-.97.05-1.41s.37-.81.68-1.12c.55-.55,1.22-.82,2.02-.8.79.02,1.51.35,2.15.99.42.42.72.91.9,1.45.18.54.21,1.07.08,1.58-.12.51-.39.97-.79,1.37-.69.69-1.5,1-2.44.92-.94-.07-1.99-.69-3.16-1.85-1.3-1.3-2.01-2.49-2.12-3.56-.09-.93.21-1.76.92-2.47.53-.53,1.11-.82,1.75-.86.64-.04,1.25.17,1.84.62ZM380.58,554.62c.29.29.62.5,1,.64.38.14.75.17,1.1.09.35-.08.65-.24.89-.48.35-.35.51-.79.48-1.32-.03-.53-.29-1.04-.77-1.53-.46-.46-.96-.71-1.47-.73-.52-.02-.96.16-1.34.53-.37.37-.56.83-.55,1.35,0,.53.23,1.01.66,1.44Z"/>
    <path class="cls-10" d="M386.8,552.99l-5.01-8.91.66-.66,5.01,8.91-.67.67Z"/>
    <path class="cls-10" d="M393.24,544.73l.79.79-4.45,4.45c-.21-.19-.36-.42-.48-.67-.19-.42-.31-.9-.35-1.44-.04-.54-.02-1.24.06-2.1.13-1.33.15-2.3.06-2.91-.09-.61-.3-1.07-.61-1.38-.33-.33-.72-.49-1.18-.48-.46,0-.88.2-1.25.58-.4.4-.6.84-.6,1.31s.21.93.63,1.35l-.94.76c-.58-.69-.84-1.39-.79-2.11.05-.71.39-1.39,1.03-2.03.65-.65,1.34-.98,2.07-1,.73-.02,1.37.24,1.9.77.27.27.48.59.63.96.15.37.24.83.27,1.37.03.54,0,1.36-.09,2.46-.08.91-.12,1.51-.11,1.8s.04.55.1.8l3.3-3.3Z"/>
    <path class="cls-10" d="M398.03,541.53l-.83.83-5.27-5.27c0,.39-.08.84-.21,1.35-.13.51-.28.95-.44,1.3l-.8-.8c.25-.68.39-1.35.42-2,.04-.65-.02-1.2-.17-1.63l.53-.53,6.76,6.76Z"/>
    <path class="cls-10" d="M402.48,537.3l-5.01-8.91.66-.66,5.01,8.91-.67.67Z"/>
    <path class="cls-10" d="M408.92,529.05l.79.79-4.45,4.45c-.21-.19-.36-.42-.48-.67-.19-.42-.31-.9-.35-1.44-.04-.54-.03-1.24.06-2.1.13-1.33.15-2.3.06-2.91-.09-.61-.3-1.07-.61-1.38-.33-.33-.72-.49-1.18-.48-.46,0-.88.2-1.25.58-.4.4-.6.83-.6,1.31,0,.48.21.93.63,1.36l-.94.76c-.58-.69-.84-1.39-.79-2.11s.39-1.39,1.03-2.03c.65-.65,1.34-.98,2.07-1,.73-.02,1.37.24,1.9.77.27.27.48.59.63.96.15.37.24.83.27,1.37.03.54,0,1.36-.09,2.46-.08.91-.12,1.51-.11,1.8,0,.29.04.55.1.8l3.3-3.3Z"/>
    <path class="cls-10" d="M407.28,525.63c-.8-.8-1.35-1.52-1.68-2.17-.32-.65-.45-1.27-.39-1.85.06-.59.33-1.12.82-1.61.36-.36.75-.61,1.17-.73.42-.13.85-.14,1.3-.05s.92.29,1.42.58c.5.29,1.08.77,1.74,1.44.79.79,1.35,1.51,1.67,2.16s.46,1.27.4,1.85c-.06.59-.33,1.13-.83,1.62-.65.65-1.39.93-2.23.83-1-.12-2.14-.81-3.4-2.07ZM408.13,524.79c1.11,1.11,1.97,1.71,2.59,1.82.62.11,1.13-.03,1.51-.41.38-.38.51-.88.41-1.51-.11-.62-.71-1.49-1.82-2.59-1.11-1.11-1.97-1.71-2.6-1.82-.62-.1-1.13.04-1.51.42-.38.38-.52.84-.43,1.39.12.7.74,1.6,1.85,2.7Z"/>
    <path class="cls-10" d="M419.38,518.59l.79.79-4.45,4.45c-.21-.19-.36-.42-.48-.67-.19-.42-.31-.9-.35-1.44-.04-.54-.02-1.25.06-2.1.13-1.33.15-2.3.06-2.91-.09-.61-.3-1.07-.61-1.38-.33-.33-.72-.49-1.18-.48-.46,0-.88.2-1.25.58-.4.4-.6.83-.6,1.31,0,.48.21.93.63,1.36l-.94.76c-.58-.69-.84-1.39-.79-2.11.05-.71.39-1.39,1.03-2.03.65-.65,1.34-.98,2.07-1s1.37.24,1.9.77c.27.27.48.59.63.96.15.37.24.83.27,1.37.03.54,0,1.36-.09,2.46-.08.91-.12,1.51-.11,1.8,0,.29.04.55.1.8l3.3-3.3Z"/>
    <path class="cls-10" d="M423.71,515.84l-1.61-1.61-2.92,2.92-.76-.76-1.29-7.43.67-.68,4.36,4.36.91-.91.76.76-.91.91,1.61,1.61-.83.83ZM421.34,513.47l-3.04-3.04.93,5.14,2.11-2.11Z"/>
    <line class="cls-19" x1="454.9" y1="497.7" x2="454.9" y2="504.4"/>
    <path class="cls-10" d="M416.45,548.34l-.76.89c-.4-.25-.74-.38-1.02-.4-.46-.01-.85.15-1.18.47-.26.26-.42.57-.47.91-.07.45,0,.93.21,1.45.21.51.66,1.11,1.32,1.79-.11-.5-.09-.97.05-1.41s.37-.81.68-1.12c.55-.55,1.22-.82,2.02-.8.79.02,1.51.35,2.15.99.42.42.72.91.9,1.45.18.54.21,1.07.08,1.58-.12.51-.39.97-.79,1.37-.69.69-1.5,1-2.44.92-.94-.07-1.99-.69-3.16-1.85-1.3-1.3-2.01-2.49-2.12-3.56-.09-.93.21-1.76.92-2.47.53-.53,1.11-.82,1.75-.86.64-.04,1.25.17,1.84.62ZM415.98,554.62c.29.29.62.5,1,.64.38.14.75.17,1.1.09.35-.08.65-.24.89-.48.35-.35.51-.79.48-1.32-.03-.53-.29-1.04-.77-1.53-.46-.46-.96-.71-1.47-.73-.52-.02-.96.16-1.34.53-.37.37-.56.83-.55,1.35,0,.53.23,1.01.66,1.44Z"/>
    <path class="cls-10" d="M422.2,552.99l-5.01-8.91.66-.66,5.01,8.91-.67.67Z"/>
    <path class="cls-10" d="M428.64,544.73l.79.79-4.45,4.45c-.21-.19-.36-.42-.48-.67-.19-.42-.31-.9-.35-1.44-.04-.54-.02-1.24.06-2.1.13-1.33.15-2.3.06-2.91-.09-.61-.3-1.07-.61-1.38-.33-.33-.72-.49-1.18-.48-.46,0-.88.2-1.25.58-.4.4-.6.84-.6,1.31s.21.93.63,1.35l-.94.76c-.58-.69-.84-1.39-.79-2.11.05-.71.39-1.39,1.03-2.03.65-.65,1.34-.98,2.07-1,.73-.02,1.37.24,1.9.77.27.27.48.59.63.96.15.37.24.83.27,1.37.03.54,0,1.36-.09,2.46-.08.91-.12,1.51-.11,1.8s.04.55.1.8l3.3-3.3Z"/>
    <path class="cls-10" d="M429.52,535.27l-.76.89c-.4-.25-.74-.38-1.02-.4-.46-.01-.85.15-1.18.47-.26.26-.42.57-.47.91-.07.45,0,.93.22,1.45.21.51.66,1.11,1.32,1.79-.1-.5-.09-.97.05-1.41.14-.43.37-.81.68-1.12.55-.55,1.22-.82,2.02-.8.79.02,1.51.35,2.15.99.42.42.72.91.9,1.45s.21,1.07.08,1.58c-.12.51-.39.97-.79,1.37-.69.69-1.5,1-2.44.93-.94-.07-1.99-.69-3.16-1.85-1.3-1.3-2.01-2.49-2.12-3.56-.09-.93.21-1.76.92-2.47.53-.53,1.11-.81,1.75-.86.64-.04,1.25.17,1.84.62ZM429.05,541.55c.29.29.62.5,1,.64.38.14.75.17,1.1.09.35-.08.65-.24.89-.48.35-.35.51-.79.48-1.32-.03-.53-.29-1.04-.77-1.52-.47-.47-.96-.71-1.47-.73-.52-.02-.96.16-1.34.53s-.56.83-.55,1.35c0,.53.23,1.01.66,1.44Z"/>
    <path class="cls-10" d="M437.88,537.3l-5.01-8.91.66-.66,5.01,8.91-.67.67Z"/>
    <path class="cls-10" d="M444.32,529.05l.79.79-4.45,4.45c-.21-.19-.36-.42-.48-.67-.19-.42-.31-.9-.35-1.44-.04-.54-.03-1.24.06-2.1.13-1.33.15-2.3.06-2.91-.09-.61-.3-1.07-.61-1.38-.33-.33-.72-.49-1.18-.48-.46,0-.88.2-1.25.58-.4.4-.6.83-.6,1.31,0,.48.21.93.63,1.36l-.94.76c-.58-.69-.84-1.39-.79-2.11s.39-1.39,1.03-2.03c.65-.65,1.34-.98,2.07-1,.73-.02,1.37.24,1.9.77.27.27.48.59.63.96.15.37.24.83.27,1.37.03.54,0,1.36-.09,2.46-.08.91-.12,1.51-.11,1.8,0,.29.04.55.1.8l3.3-3.3Z"/>
    <path class="cls-10" d="M442.68,525.63c-.8-.8-1.35-1.52-1.68-2.17-.32-.65-.45-1.27-.39-1.85.06-.59.33-1.12.82-1.61.36-.36.75-.61,1.17-.73.42-.13.85-.14,1.3-.05s.92.29,1.42.58c.5.29,1.08.77,1.74,1.44.79.79,1.35,1.51,1.67,2.16s.46,1.27.4,1.85c-.06.59-.33,1.13-.83,1.62-.65.65-1.39.93-2.23.83-1-.12-2.14-.81-3.4-2.07ZM443.53,524.79c1.11,1.11,1.97,1.71,2.59,1.82.62.11,1.13-.03,1.51-.41.38-.38.51-.88.41-1.51-.11-.62-.71-1.49-1.82-2.59-1.11-1.11-1.97-1.71-2.6-1.82-.62-.1-1.13.04-1.51.42-.38.38-.52.84-.43,1.39.12.7.74,1.6,1.85,2.7Z"/>
    <path class="cls-10" d="M454.78,518.59l.79.79-4.45,4.45c-.21-.19-.36-.42-.48-.67-.19-.42-.31-.9-.35-1.44-.04-.54-.02-1.25.06-2.1.13-1.33.15-2.3.06-2.91-.09-.61-.3-1.07-.61-1.38-.33-.33-.72-.49-1.18-.48-.46,0-.88.2-1.25.58-.4.4-.6.83-.6,1.31,0,.48.21.93.63,1.36l-.94.76c-.58-.69-.84-1.39-.79-2.11.05-.71.39-1.39,1.03-2.03.65-.65,1.34-.98,2.07-1s1.37.24,1.9.77c.27.27.48.59.63.96.15.37.24.83.27,1.37.03.54,0,1.36-.09,2.46-.08.91-.12,1.51-.11,1.8,0,.29.04.55.1.8l3.3-3.3Z"/>
    <path class="cls-10" d="M459.11,515.84l-1.61-1.61-2.92,2.92-.76-.76-1.29-7.43.67-.68,4.36,4.36.91-.91.76.76-.91.91,1.61,1.61-.83.83ZM456.74,513.47l-3.04-3.04.93,5.14,2.11-2.11Z"/>
    <line class="cls-19" x1="490.4" y1="497.7" x2="490.4" y2="504.4"/>
    <path class="cls-10" d="M451.95,548.34l-.76.89c-.4-.25-.74-.38-1.02-.4-.46-.01-.85.15-1.18.47-.26.26-.42.57-.47.91-.07.45,0,.93.21,1.45.21.51.66,1.11,1.32,1.79-.11-.5-.09-.97.05-1.41s.37-.81.68-1.12c.55-.55,1.22-.82,2.02-.8.79.02,1.51.35,2.15.99.42.42.72.91.9,1.45.18.54.21,1.07.08,1.58-.12.51-.39.97-.79,1.37-.69.69-1.5,1-2.44.92-.94-.07-1.99-.69-3.16-1.85-1.3-1.3-2.01-2.49-2.12-3.56-.09-.93.21-1.76.92-2.47.53-.53,1.11-.82,1.75-.86.64-.04,1.25.17,1.84.62ZM451.48,554.62c.29.29.62.5,1,.64.38.14.75.17,1.1.09.35-.08.65-.24.89-.48.35-.35.51-.79.48-1.32-.03-.53-.29-1.04-.77-1.53-.46-.46-.96-.71-1.47-.73-.52-.02-.96.16-1.34.53-.37.37-.56.83-.55,1.35,0,.53.23,1.01.66,1.44Z"/>
    <path class="cls-10" d="M457.7,552.99l-5.01-8.91.66-.66,5.01,8.91-.67.67Z"/>
    <path class="cls-10" d="M464.14,544.73l.79.79-4.45,4.45c-.21-.19-.36-.42-.48-.67-.19-.42-.31-.9-.35-1.44-.04-.54-.02-1.24.06-2.1.13-1.33.15-2.3.06-2.91-.09-.61-.3-1.07-.61-1.38-.33-.33-.72-.49-1.18-.48-.46,0-.88.2-1.25.58-.4.4-.6.84-.6,1.31s.21.93.63,1.35l-.94.76c-.58-.69-.84-1.39-.79-2.11.05-.71.39-1.39,1.03-2.03.65-.65,1.34-.98,2.07-1,.73-.02,1.37.24,1.9.77.27.27.48.59.63.96.15.37.24.83.27,1.37.03.54,0,1.36-.09,2.46-.08.91-.12,1.51-.11,1.8s.04.55.1.8l3.3-3.3Z"/>
    <path class="cls-10" d="M463.44,539.72c-.47.22-.9.29-1.3.23-.4-.07-.76-.26-1.08-.59-.49-.49-.73-1.08-.71-1.76.02-.69.32-1.32.9-1.91.59-.59,1.23-.89,1.93-.91.7-.02,1.29.22,1.78.71.31.31.5.67.57,1.06.07.39,0,.82-.21,1.28.55-.28,1.08-.38,1.6-.29.52.08.98.33,1.4.75.58.57.86,1.26.84,2.06-.01.8-.36,1.53-1.02,2.2s-1.4,1-2.2,1.02-1.49-.27-2.08-.86c-.44-.44-.69-.91-.77-1.43-.07-.52.04-1.04.34-1.55ZM461.87,538.48c.32.32.68.48,1.09.47.41,0,.77-.17,1.1-.5s.48-.68.48-1.08c0-.4-.14-.75-.43-1.04-.3-.3-.66-.45-1.08-.45s-.78.16-1.09.47c-.32.31-.48.68-.48,1.09,0,.41.13.76.41,1.04ZM464.71,541.86c.24.24.52.41.85.52.33.11.67.11,1.01.01.34-.1.64-.28.89-.53.39-.4.59-.85.6-1.36,0-.51-.19-.96-.58-1.35-.4-.4-.86-.6-1.38-.59-.53,0-.99.21-1.38.6s-.58.84-.58,1.35.19.96.58,1.35Z"/>
    <path class="cls-10" d="M473.38,537.3l-5.01-8.91.66-.66,5.01,8.91-.67.67Z"/>
    <path class="cls-10" d="M479.82,529.05l.79.79-4.45,4.45c-.21-.19-.36-.42-.48-.67-.19-.42-.31-.9-.35-1.44-.04-.54-.03-1.24.06-2.1.13-1.33.15-2.3.06-2.91-.09-.61-.3-1.07-.61-1.38-.33-.33-.72-.49-1.18-.48-.46,0-.88.2-1.25.58-.4.4-.6.83-.6,1.31,0,.48.21.93.63,1.36l-.94.76c-.58-.69-.84-1.39-.79-2.11s.39-1.39,1.03-2.03c.65-.65,1.34-.98,2.07-1,.73-.02,1.37.24,1.9.77.27.27.48.59.63.96.15.37.24.83.27,1.37.03.54,0,1.36-.09,2.46-.08.91-.12,1.51-.11,1.8,0,.29.04.55.1.8l3.3-3.3Z"/>
    <path class="cls-10" d="M478.18,525.63c-.8-.8-1.35-1.52-1.68-2.17-.32-.65-.45-1.27-.39-1.85.06-.59.33-1.12.82-1.61.36-.36.75-.61,1.17-.73.42-.13.85-.14,1.3-.05s.92.29,1.42.58c.5.29,1.08.77,1.74,1.44.79.79,1.35,1.51,1.67,2.16s.46,1.27.4,1.85c-.06.59-.33,1.13-.83,1.62-.65.65-1.39.93-2.23.83-1-.12-2.14-.81-3.4-2.07ZM479.03,524.79c1.11,1.11,1.97,1.71,2.59,1.82.62.11,1.13-.03,1.51-.41.38-.38.51-.88.41-1.51-.11-.62-.71-1.49-1.82-2.59-1.11-1.11-1.97-1.71-2.6-1.82-.62-.1-1.13.04-1.51.42-.38.38-.52.84-.43,1.39.12.7.74,1.6,1.85,2.7Z"/>
    <path class="cls-10" d="M490.28,518.59l.79.79-4.45,4.45c-.21-.19-.36-.42-.48-.67-.19-.42-.31-.9-.35-1.44-.04-.54-.02-1.25.06-2.1.13-1.33.15-2.3.06-2.91-.09-.61-.3-1.07-.61-1.38-.33-.33-.72-.49-1.18-.48-.46,0-.88.2-1.25.58-.4.4-.6.83-.6,1.31,0,.48.21.93.63,1.36l-.94.76c-.58-.69-.84-1.39-.79-2.11.05-.71.39-1.39,1.03-2.03.65-.65,1.34-.98,2.07-1s1.37.24,1.9.77c.27.27.48.59.63.96.15.37.24.83.27,1.37.03.54,0,1.36-.09,2.46-.08.91-.12,1.51-.11,1.8,0,.29.04.55.1.8l3.3-3.3Z"/>
    <path class="cls-10" d="M494.61,515.84l-1.61-1.61-2.92,2.92-.76-.76-1.29-7.43.67-.68,4.36,4.36.91-.91.76.76-.91.91,1.61,1.61-.83.83ZM492.24,513.47l-3.04-3.04.93,5.14,2.11-2.11Z"/>
    <line class="cls-19" x1="525.8" y1="497.7" x2="525.8" y2="504.4"/>
    <path class="cls-10" d="M487.35,548.34l-.76.89c-.4-.25-.74-.38-1.02-.4-.46-.01-.85.15-1.18.47-.26.26-.42.57-.47.91-.07.45,0,.93.21,1.45.21.51.66,1.11,1.32,1.79-.11-.5-.09-.97.05-1.41s.37-.81.68-1.12c.55-.55,1.22-.82,2.02-.8.79.02,1.51.35,2.15.99.42.42.72.91.9,1.45.18.54.21,1.07.08,1.58-.12.51-.39.97-.79,1.37-.69.69-1.5,1-2.44.92-.94-.07-1.99-.69-3.16-1.85-1.3-1.3-2.01-2.49-2.12-3.56-.09-.93.21-1.76.92-2.47.53-.53,1.11-.82,1.75-.86.64-.04,1.25.17,1.84.62ZM486.88,554.62c.29.29.62.5,1,.64.38.14.75.17,1.1.09.35-.08.65-.24.89-.48.35-.35.51-.79.48-1.32-.03-.53-.29-1.04-.77-1.53-.46-.46-.96-.71-1.47-.73-.52-.02-.96.16-1.34.53-.37.37-.56.83-.55,1.35,0,.53.23,1.01.66,1.44Z"/>
    <path class="cls-10" d="M493.1,552.99l-5.01-8.91.66-.66,5.01,8.91-.67.67Z"/>
    <path class="cls-10" d="M499.54,544.73l.79.79-4.45,4.45c-.21-.19-.36-.42-.48-.67-.19-.42-.31-.9-.35-1.44-.04-.54-.02-1.24.06-2.1.13-1.33.15-2.3.06-2.91-.09-.61-.3-1.07-.61-1.38-.33-.33-.72-.49-1.18-.48-.46,0-.88.2-1.25.58-.4.4-.6.84-.6,1.31s.21.93.63,1.35l-.94.76c-.58-.69-.84-1.39-.79-2.11.05-.71.39-1.39,1.03-2.03.65-.65,1.34-.98,2.07-1,.73-.02,1.37.24,1.9.77.27.27.48.59.63.96.15.37.24.83.27,1.37.03.54,0,1.36-.09,2.46-.08.91-.12,1.51-.11,1.8s.04.55.1.8l3.3-3.3Z"/>
    <path class="cls-10" d="M499.78,542.96l.72-.87c.44.31.84.45,1.2.43.36-.02.69-.18.98-.48.25-.25.42-.53.49-.84.07-.31.08-.62,0-.94-.07-.32-.23-.68-.48-1.09-.25-.41-.54-.79-.89-1.13-.04-.04-.09-.09-.17-.16.1.43.08.87-.04,1.32-.12.45-.35.84-.68,1.17-.56.56-1.23.83-2.02.81-.79-.02-1.52-.36-2.18-1.02-.68-.68-1.03-1.43-1.04-2.25-.01-.82.28-1.53.89-2.14.44-.44.96-.72,1.55-.85.6-.13,1.21-.07,1.84.18.62.25,1.35.79,2.18,1.61.86.86,1.45,1.64,1.78,2.33.32.7.43,1.36.33,2-.1.63-.4,1.2-.9,1.7-.53.53-1.1.81-1.73.85-.62.04-1.24-.17-1.83-.63ZM500.2,536.61c-.47-.47-.98-.72-1.51-.75-.53-.03-.97.14-1.33.49s-.54.84-.51,1.41c.03.57.28,1.1.76,1.58.43.43.91.65,1.43.66.53,0,.98-.18,1.36-.56.38-.38.56-.83.54-1.35-.02-.51-.27-1.01-.74-1.48Z"/>
    <path class="cls-10" d="M508.78,537.3l-5.01-8.91.66-.66,5.01,8.91-.67.67Z"/>
    <path class="cls-10" d="M515.22,529.05l.79.79-4.45,4.45c-.21-.19-.36-.42-.48-.67-.19-.42-.31-.9-.35-1.44-.04-.54-.03-1.24.06-2.1.13-1.33.15-2.3.06-2.91-.09-.61-.3-1.07-.61-1.38-.33-.33-.72-.49-1.18-.48-.46,0-.88.2-1.25.58-.4.4-.6.83-.6,1.31,0,.48.21.93.63,1.36l-.94.76c-.58-.69-.84-1.39-.79-2.11s.39-1.39,1.03-2.03c.65-.65,1.34-.98,2.07-1,.73-.02,1.37.24,1.9.77.27.27.48.59.63.96.15.37.24.83.27,1.37.03.54,0,1.36-.09,2.46-.08.91-.12,1.51-.11,1.8,0,.29.04.55.1.8l3.3-3.3Z"/>
    <path class="cls-10" d="M513.58,525.63c-.8-.8-1.35-1.52-1.68-2.17-.32-.65-.45-1.27-.39-1.85.06-.59.33-1.12.82-1.61.36-.36.75-.61,1.17-.73.42-.13.85-.14,1.3-.05s.92.29,1.42.58c.5.29,1.08.77,1.74,1.44.79.79,1.35,1.51,1.67,2.16s.46,1.27.4,1.85c-.06.59-.33,1.13-.83,1.62-.65.65-1.39.93-2.23.83-1-.12-2.14-.81-3.4-2.07ZM514.43,524.79c1.11,1.11,1.97,1.71,2.59,1.82.62.11,1.13-.03,1.51-.41.38-.38.51-.88.41-1.51-.11-.62-.71-1.49-1.82-2.59-1.11-1.11-1.97-1.71-2.6-1.82-.62-.1-1.13.04-1.51.42-.38.38-.52.84-.43,1.39.12.7.74,1.6,1.85,2.7Z"/>
    <path class="cls-10" d="M525.68,518.59l.79.79-4.45,4.45c-.21-.19-.36-.42-.48-.67-.19-.42-.31-.9-.35-1.44-.04-.54-.02-1.25.06-2.1.13-1.33.15-2.3.06-2.91-.09-.61-.3-1.07-.61-1.38-.33-.33-.72-.49-1.18-.48-.46,0-.88.2-1.25.58-.4.4-.6.83-.6,1.31,0,.48.21.93.63,1.36l-.94.76c-.58-.69-.84-1.39-.79-2.11.05-.71.39-1.39,1.03-2.03.65-.65,1.34-.98,2.07-1s1.37.24,1.9.77c.27.27.48.59.63.96.15.37.24.83.27,1.37.03.54,0,1.36-.09,2.46-.08.91-.12,1.51-.11,1.8,0,.29.04.55.1.8l3.3-3.3Z"/>
    <path class="cls-10" d="M530.01,515.84l-1.61-1.61-2.92,2.92-.76-.76-1.29-7.43.67-.68,4.36,4.36.91-.91.76.76-.91.91,1.61,1.61-.83.83ZM527.64,513.47l-3.04-3.04.93,5.14,2.11-2.11Z"/>
    <line class="cls-19" x1="561.3" y1="497.7" x2="561.3" y2="504.4"/>
    <path class="cls-10" d="M523.05,546.61l-.79-.79,4.36-4.36.64.64c.03.88.21,1.92.54,3.09.33,1.18.79,2.28,1.36,3.31.4.73.91,1.45,1.53,2.17l-.85.85c-.52-.54-1.06-1.28-1.61-2.23-.55-.95-.99-1.96-1.31-3.03-.32-1.07-.51-2.05-.57-2.95l-3.3,3.3Z"/>
    <path class="cls-10" d="M533.8,547.79l-5.01-8.91.66-.66,5.01,8.91-.67.67Z"/>
    <path class="cls-10" d="M539.8,541.56l-.83.83-5.27-5.27c0,.39-.08.84-.21,1.35-.13.51-.28.94-.44,1.3l-.8-.8c.25-.68.39-1.35.42-2,.04-.66-.02-1.2-.17-1.63l.53-.53,6.76,6.76Z"/>
    <path class="cls-10" d="M544.25,537.33l-5.01-8.91.66-.66,5.01,8.91-.67.67Z"/>
    <path class="cls-10" d="M550.69,529.08l.79.79-4.45,4.45c-.21-.19-.36-.42-.48-.67-.19-.42-.31-.9-.35-1.44-.04-.54-.03-1.24.06-2.1.13-1.33.15-2.3.06-2.91s-.3-1.07-.61-1.38c-.33-.33-.72-.49-1.18-.48-.46,0-.88.2-1.25.58-.4.4-.6.84-.6,1.31,0,.48.21.93.63,1.35l-.94.76c-.58-.69-.84-1.39-.79-2.11.05-.71.39-1.39,1.03-2.03.65-.65,1.34-.98,2.07-1,.73-.02,1.37.24,1.9.77.27.27.48.59.63.96.15.37.24.83.27,1.37.03.54,0,1.36-.09,2.46-.08.91-.12,1.51-.11,1.8,0,.29.04.55.1.8l3.3-3.3Z"/>
    <path class="cls-10" d="M549.05,525.67c-.8-.8-1.35-1.52-1.68-2.17-.32-.65-.45-1.27-.39-1.85.06-.59.33-1.12.82-1.62.36-.36.75-.6,1.17-.73.42-.13.85-.14,1.3-.05s.92.29,1.42.58c.5.29,1.08.77,1.74,1.44.79.79,1.35,1.51,1.67,2.16.32.65.46,1.26.4,1.85-.06.59-.33,1.13-.83,1.62-.65.65-1.39.93-2.23.83-1-.12-2.14-.81-3.4-2.07ZM549.9,524.82c1.11,1.11,1.97,1.71,2.59,1.82.62.11,1.13-.03,1.51-.41.38-.38.51-.88.41-1.51-.11-.63-.71-1.49-1.82-2.59-1.11-1.11-1.97-1.72-2.6-1.82-.62-.11-1.13.04-1.51.42-.38.38-.52.84-.43,1.39.12.7.74,1.6,1.85,2.7Z"/>
    <path class="cls-10" d="M561.15,518.62l.79.79-4.45,4.45c-.21-.19-.36-.42-.48-.67-.19-.42-.31-.9-.35-1.44-.04-.54-.03-1.24.06-2.1.13-1.33.15-2.3.06-2.91s-.3-1.07-.61-1.38c-.33-.33-.72-.49-1.18-.48-.46,0-.88.2-1.25.58-.4.4-.6.84-.6,1.31,0,.48.21.93.63,1.35l-.94.76c-.58-.69-.84-1.39-.79-2.11.05-.71.39-1.39,1.03-2.03.65-.65,1.34-.98,2.07-1,.73-.02,1.37.24,1.9.77.27.27.48.59.63.96.15.37.24.83.27,1.37.03.54,0,1.36-.09,2.46-.08.91-.12,1.51-.11,1.8,0,.29.04.55.1.8l3.3-3.3Z"/>
    <path class="cls-10" d="M565.48,515.88l-1.61-1.61-2.92,2.92-.76-.76-1.29-7.44.67-.67,4.36,4.36.91-.91.76.76-.91.91,1.61,1.61-.83.83ZM563.11,513.51l-3.04-3.04.93,5.14,2.11-2.11Z"/>
    <line class="cls-19" x1="596.7" y1="497.7" x2="596.7" y2="504.4"/>
    <path class="cls-10" d="M558.45,546.61l-.79-.79,4.36-4.36.64.64c.03.88.21,1.92.54,3.09.33,1.18.79,2.28,1.36,3.31.4.73.91,1.45,1.53,2.17l-.85.85c-.52-.54-1.06-1.28-1.61-2.23-.55-.95-.99-1.96-1.31-3.03-.32-1.07-.51-2.05-.57-2.95l-3.3,3.3Z"/>
    <path class="cls-10" d="M569.2,547.79l-5.01-8.91.66-.66,5.01,8.91-.67.67Z"/>
    <path class="cls-10" d="M570.32,542.91l.79-.94c.49.36.96.53,1.4.5.45-.02.83-.2,1.17-.53.4-.4.58-.88.56-1.46-.02-.57-.28-1.11-.78-1.61-.47-.47-.98-.71-1.51-.72-.54,0-1.02.2-1.45.63-.27.27-.45.57-.54.9-.09.33-.1.66-.03.98l-.88.67-2.81-4.11,3.35-3.35.79.79-2.69,2.69,1.45,2.17c.12-.69.41-1.25.85-1.7.59-.59,1.29-.88,2.1-.88.81,0,1.54.32,2.18.96.61.61.96,1.31,1.05,2.11.11.98-.2,1.84-.95,2.58-.61.61-1.28.94-2.01.98-.73.04-1.41-.19-2.03-.7Z"/>
    <path class="cls-10" d="M579.65,537.33l-5.01-8.91.66-.66,5.01,8.91-.67.67Z"/>
    <path class="cls-10" d="M586.09,529.08l.79.79-4.45,4.45c-.21-.19-.36-.42-.48-.67-.19-.42-.31-.9-.35-1.44-.04-.54-.03-1.24.06-2.1.13-1.33.15-2.3.06-2.91s-.3-1.07-.61-1.38c-.33-.33-.72-.49-1.18-.48-.46,0-.88.2-1.25.58-.4.4-.6.84-.6,1.31,0,.48.21.93.63,1.35l-.94.76c-.58-.69-.84-1.39-.79-2.11.05-.71.39-1.39,1.03-2.03.65-.65,1.34-.98,2.07-1,.73-.02,1.37.24,1.9.77.27.27.48.59.63.96.15.37.24.83.27,1.37.03.54,0,1.36-.09,2.46-.08.91-.12,1.51-.11,1.8,0,.29.04.55.1.8l3.3-3.3Z"/>
    <path class="cls-10" d="M584.45,525.67c-.8-.8-1.35-1.52-1.68-2.17-.32-.65-.45-1.27-.39-1.85.06-.59.33-1.12.82-1.62.36-.36.75-.6,1.17-.73.42-.13.85-.14,1.3-.05s.92.29,1.42.58c.5.29,1.08.77,1.74,1.44.79.79,1.35,1.51,1.67,2.16.32.65.46,1.26.4,1.85-.06.59-.33,1.13-.83,1.62-.65.65-1.39.93-2.23.83-1-.12-2.14-.81-3.4-2.07ZM585.3,524.82c1.11,1.11,1.97,1.71,2.59,1.82.62.11,1.13-.03,1.51-.41.38-.38.51-.88.41-1.51-.11-.63-.71-1.49-1.82-2.59-1.11-1.11-1.97-1.72-2.6-1.82-.62-.11-1.13.04-1.51.42-.38.38-.52.84-.43,1.39.12.7.74,1.6,1.85,2.7Z"/>
    <path class="cls-10" d="M596.55,518.62l.79.79-4.45,4.45c-.21-.19-.36-.42-.48-.67-.19-.42-.31-.9-.35-1.44-.04-.54-.03-1.24.06-2.1.13-1.33.15-2.3.06-2.91s-.3-1.07-.61-1.38c-.33-.33-.72-.49-1.18-.48-.46,0-.88.2-1.25.58-.4.4-.6.84-.6,1.31,0,.48.21.93.63,1.35l-.94.76c-.58-.69-.84-1.39-.79-2.11.05-.71.39-1.39,1.03-2.03.65-.65,1.34-.98,2.07-1,.73-.02,1.37.24,1.9.77.27.27.48.59.63.96.15.37.24.83.27,1.37.03.54,0,1.36-.09,2.46-.08.91-.12,1.51-.11,1.8,0,.29.04.55.1.8l3.3-3.3Z"/>
    <path class="cls-10" d="M600.88,515.88l-1.61-1.61-2.92,2.92-.76-.76-1.29-7.44.67-.67,4.36,4.36.91-.91.76.76-.91.91,1.61,1.61-.83.83ZM598.51,513.51l-3.04-3.04.93,5.14,2.11-2.11Z"/>
    <line class="cls-19" x1="632.2" y1="497.7" x2="632.2" y2="504.4"/>
    <path class="cls-10" d="M593.95,546.61l-.79-.79,4.36-4.36.64.64c.03.88.21,1.92.54,3.09.33,1.18.79,2.28,1.36,3.31.4.73.91,1.45,1.53,2.17l-.85.85c-.52-.54-1.06-1.28-1.61-2.23-.55-.95-.99-1.96-1.31-3.03-.32-1.07-.51-2.05-.57-2.95l-3.3,3.3Z"/>
    <path class="cls-10" d="M604.7,547.79l-5.01-8.91.66-.66,5.01,8.91-.67.67Z"/>
    <path class="cls-10" d="M601.79,538.77l-.79-.79,4.36-4.36.64.64c.03.89.21,1.92.54,3.09.33,1.18.79,2.28,1.36,3.31.4.73.91,1.45,1.53,2.17l-.85.85c-.52-.54-1.06-1.28-1.61-2.23s-.99-1.96-1.31-3.03c-.32-1.07-.51-2.05-.57-2.95l-3.3,3.3Z"/>
    <path class="cls-10" d="M615.15,537.33l-5.01-8.91.66-.66,5.01,8.91-.67.67Z"/>
    <path class="cls-10" d="M621.59,529.08l.79.79-4.45,4.45c-.21-.19-.36-.42-.48-.67-.19-.42-.31-.9-.35-1.44-.04-.54-.03-1.24.06-2.1.13-1.33.15-2.3.06-2.91s-.3-1.07-.61-1.38c-.33-.33-.72-.49-1.18-.48-.46,0-.88.2-1.25.58-.4.4-.6.84-.6,1.31,0,.48.21.93.63,1.35l-.94.76c-.58-.69-.84-1.39-.79-2.11.05-.71.39-1.39,1.03-2.03.65-.65,1.34-.98,2.07-1,.73-.02,1.37.24,1.9.77.27.27.48.59.63.96.15.37.24.83.27,1.37.03.54,0,1.36-.09,2.46-.08.91-.12,1.51-.11,1.8,0,.29.04.55.1.8l3.3-3.3Z"/>
    <path class="cls-10" d="M619.95,525.67c-.8-.8-1.35-1.52-1.68-2.17-.32-.65-.45-1.27-.39-1.85.06-.59.33-1.12.82-1.62.36-.36.75-.6,1.17-.73.42-.13.85-.14,1.3-.05s.92.29,1.42.58c.5.29,1.08.77,1.74,1.44.79.79,1.35,1.51,1.67,2.16.32.65.46,1.26.4,1.85-.06.59-.33,1.13-.83,1.62-.65.65-1.39.93-2.23.83-1-.12-2.14-.81-3.4-2.07ZM620.8,524.82c1.11,1.11,1.97,1.71,2.59,1.82.62.11,1.13-.03,1.51-.41.38-.38.51-.88.41-1.51-.11-.63-.71-1.49-1.82-2.59-1.11-1.11-1.97-1.72-2.6-1.82-.62-.11-1.13.04-1.51.42-.38.38-.52.84-.43,1.39.12.7.74,1.6,1.85,2.7Z"/>
    <path class="cls-10" d="M632.05,518.62l.79.79-4.45,4.45c-.21-.19-.36-.42-.48-.67-.19-.42-.31-.9-.35-1.44-.04-.54-.03-1.24.06-2.1.13-1.33.15-2.3.06-2.91s-.3-1.07-.61-1.38c-.33-.33-.72-.49-1.18-.48-.46,0-.88.2-1.25.58-.4.4-.6.84-.6,1.31,0,.48.21.93.63,1.35l-.94.76c-.58-.69-.84-1.39-.79-2.11.05-.71.39-1.39,1.03-2.03.65-.65,1.34-.98,2.07-1,.73-.02,1.37.24,1.9.77.27.27.48.59.63.96.15.37.24.83.27,1.37.03.54,0,1.36-.09,2.46-.08.91-.12,1.51-.11,1.8,0,.29.04.55.1.8l3.3-3.3Z"/>
    <path class="cls-10" d="M636.38,515.88l-1.61-1.61-2.92,2.92-.76-.76-1.29-7.44.67-.67,4.36,4.36.91-.91.76.76-.91.91,1.61,1.61-.83.83ZM634.01,513.51l-3.04-3.04.93,5.14,2.11-2.11Z"/>
    <line class="cls-19" x1="667.6" y1="497.7" x2="667.6" y2="504.4"/>
    <path class="cls-10" d="M629.35,546.61l-.79-.79,4.36-4.36.64.64c.03.88.21,1.92.54,3.09.33,1.18.79,2.28,1.36,3.31.4.73.91,1.45,1.53,2.17l-.85.85c-.52-.54-1.06-1.28-1.61-2.23-.55-.95-.99-1.96-1.31-3.03-.32-1.07-.51-2.05-.57-2.95l-3.3,3.3Z"/>
    <path class="cls-10" d="M640.1,547.79l-5.01-8.91.66-.66,5.01,8.91-.67.67Z"/>
    <path class="cls-10" d="M641.55,542.99l.72-.87c.44.31.84.45,1.2.43.36-.02.69-.18.98-.48.25-.25.42-.54.49-.84.07-.31.08-.62,0-.94s-.23-.68-.48-1.1c-.25-.41-.54-.79-.89-1.13-.04-.04-.09-.09-.17-.16.1.43.08.87-.04,1.32-.12.45-.35.84-.68,1.18-.56.56-1.23.83-2.02.81-.79-.02-1.52-.36-2.18-1.02-.68-.68-1.03-1.43-1.04-2.25-.01-.82.28-1.53.89-2.14.44-.44.96-.72,1.55-.85.6-.13,1.21-.07,1.84.18.62.25,1.35.79,2.18,1.61s1.45,1.64,1.78,2.34c.32.7.43,1.36.33,2-.1.63-.4,1.2-.9,1.7-.53.53-1.1.81-1.73.85-.62.04-1.24-.17-1.83-.63ZM641.97,536.63c-.47-.47-.98-.72-1.51-.75-.53-.03-.97.14-1.33.49s-.54.84-.51,1.41c.03.57.28,1.1.76,1.58.43.43.91.65,1.43.66.53,0,.98-.18,1.36-.56.38-.38.56-.83.54-1.34-.02-.51-.27-1.01-.74-1.48Z"/>
    <path class="cls-10" d="M650.55,537.33l-5.01-8.91.66-.66,5.01,8.91-.67.67Z"/>
    <path class="cls-10" d="M656.99,529.08l.79.79-4.45,4.45c-.21-.19-.36-.42-.48-.67-.19-.42-.31-.9-.35-1.44-.04-.54-.03-1.24.06-2.1.13-1.33.15-2.3.06-2.91s-.3-1.07-.61-1.38c-.33-.33-.72-.49-1.18-.48-.46,0-.88.2-1.25.58-.4.4-.6.84-.6,1.31,0,.48.21.93.63,1.35l-.94.76c-.58-.69-.84-1.39-.79-2.11.05-.71.39-1.39,1.03-2.03.65-.65,1.34-.98,2.07-1,.73-.02,1.37.24,1.9.77.27.27.48.59.63.96.15.37.24.83.27,1.37.03.54,0,1.36-.09,2.46-.08.91-.12,1.51-.11,1.8,0,.29.04.55.1.8l3.3-3.3Z"/>
    <path class="cls-10" d="M655.35,525.67c-.8-.8-1.35-1.52-1.68-2.17-.32-.65-.45-1.27-.39-1.85.06-.59.33-1.12.82-1.62.36-.36.75-.6,1.17-.73.42-.13.85-.14,1.3-.05s.92.29,1.42.58c.5.29,1.08.77,1.74,1.44.79.79,1.35,1.51,1.67,2.16.32.65.46,1.26.4,1.85-.06.59-.33,1.13-.83,1.62-.65.65-1.39.93-2.23.83-1-.12-2.14-.81-3.4-2.07ZM656.2,524.82c1.11,1.11,1.97,1.71,2.59,1.82.62.11,1.13-.03,1.51-.41.38-.38.51-.88.41-1.51-.11-.63-.71-1.49-1.82-2.59-1.11-1.11-1.97-1.72-2.6-1.82-.62-.11-1.13.04-1.51.42-.38.38-.52.84-.43,1.39.12.7.74,1.6,1.85,2.7Z"/>
    <path class="cls-10" d="M667.45,518.62l.79.79-4.45,4.45c-.21-.19-.36-.42-.48-.67-.19-.42-.31-.9-.35-1.44-.04-.54-.03-1.24.06-2.1.13-1.33.15-2.3.06-2.91s-.3-1.07-.61-1.38c-.33-.33-.72-.49-1.18-.48-.46,0-.88.2-1.25.58-.4.4-.6.84-.6,1.31,0,.48.21.93.63,1.35l-.94.76c-.58-.69-.84-1.39-.79-2.11.05-.71.39-1.39,1.03-2.03.65-.65,1.34-.98,2.07-1,.73-.02,1.37.24,1.9.77.27.27.48.59.63.96.15.37.24.83.27,1.37.03.54,0,1.36-.09,2.46-.08.91-.12,1.51-.11,1.8,0,.29.04.55.1.8l3.3-3.3Z"/>
    <path class="cls-10" d="M671.78,515.88l-1.61-1.61-2.92,2.92-.76-.76-1.29-7.44.67-.67,4.36,4.36.91-.91.76.76-.91.91,1.61,1.61-.83.83ZM669.41,513.51l-3.04-3.04.93,5.14,2.11-2.11Z"/>
    <line class="cls-19" x1="703.1" y1="497.7" x2="703.1" y2="504.4"/>
    <path class="cls-10" d="M659.65,551.81l-.79-.79,4.36-4.36.64.64c.03.89.21,1.92.54,3.09.33,1.18.79,2.28,1.36,3.31.4.73.91,1.45,1.53,2.17l-.85.85c-.52-.54-1.06-1.28-1.61-2.23s-.99-1.96-1.31-3.03c-.32-1.07-.51-2.05-.57-2.95l-3.3,3.3Z"/>
    <path class="cls-10" d="M670.4,552.99l-5.01-8.91.66-.66,5.01,8.91-.66.67Z"/>
    <path class="cls-10" d="M676.4,546.76l-.83.83-5.27-5.27c0,.39-.08.84-.21,1.35-.13.51-.28.95-.44,1.3l-.8-.8c.25-.68.39-1.35.42-2,.04-.65-.02-1.2-.17-1.63l.53-.53,6.76,6.76Z"/>
    <path class="cls-10" d="M682.07,539.5l.79.79-4.45,4.45c-.21-.19-.36-.42-.48-.67-.19-.42-.31-.9-.35-1.44-.04-.54-.02-1.24.06-2.1.13-1.33.15-2.3.06-2.91s-.3-1.07-.61-1.38-.72-.49-1.18-.48c-.46,0-.88.2-1.25.58-.4.4-.6.84-.6,1.31s.21.93.63,1.35l-.94.76c-.57-.69-.84-1.39-.79-2.11.05-.71.39-1.39,1.03-2.03.65-.65,1.34-.98,2.07-1,.73-.02,1.37.24,1.9.77.27.27.48.59.63.96.15.37.24.83.27,1.37s0,1.36-.09,2.46c-.08.91-.12,1.51-.11,1.8s.04.55.1.8l3.3-3.3Z"/>
    <path class="cls-10" d="M686.08,537.3l-5.01-8.91.66-.66,5.01,8.91-.67.67Z"/>
    <path class="cls-10" d="M692.52,529.05l.79.79-4.45,4.45c-.21-.19-.37-.42-.48-.67-.19-.42-.31-.9-.35-1.44-.04-.54-.03-1.24.06-2.1.13-1.33.15-2.3.06-2.91-.09-.61-.3-1.07-.61-1.38-.33-.33-.72-.49-1.18-.48-.46,0-.88.2-1.25.58-.4.4-.6.83-.6,1.31,0,.48.21.93.63,1.36l-.94.76c-.58-.69-.84-1.39-.79-2.11.05-.71.39-1.39,1.03-2.03.65-.65,1.34-.98,2.07-1,.73-.02,1.37.24,1.9.77.27.27.48.59.63.96.15.37.24.83.27,1.37.03.54,0,1.36-.09,2.46-.08.91-.12,1.51-.11,1.8,0,.29.04.55.1.8l3.3-3.3Z"/>
    <path class="cls-10" d="M690.88,525.63c-.8-.8-1.35-1.52-1.68-2.17-.32-.65-.45-1.27-.39-1.85.06-.59.33-1.12.82-1.61.36-.36.75-.61,1.17-.73.42-.13.85-.14,1.3-.05.45.1.92.29,1.42.58.5.29,1.08.77,1.74,1.44.79.79,1.35,1.51,1.67,2.16.32.65.46,1.27.4,1.85s-.33,1.13-.83,1.62c-.65.65-1.39.93-2.23.83-1-.12-2.14-.81-3.4-2.07ZM691.73,524.79c1.11,1.11,1.97,1.71,2.59,1.82.62.11,1.13-.03,1.51-.41.38-.38.51-.88.41-1.51-.11-.62-.71-1.49-1.82-2.59-1.11-1.11-1.97-1.71-2.6-1.82-.62-.1-1.13.04-1.51.42-.38.38-.52.84-.43,1.39.12.7.74,1.6,1.85,2.7Z"/>
    <path class="cls-10" d="M702.98,518.59l.79.79-4.45,4.45c-.21-.19-.37-.42-.48-.67-.19-.42-.31-.9-.35-1.44-.04-.54-.02-1.25.06-2.1.13-1.33.15-2.3.06-2.91-.09-.61-.3-1.07-.61-1.38-.33-.33-.72-.49-1.18-.48-.46,0-.88.2-1.25.58-.4.4-.6.83-.6,1.31s.21.93.63,1.36l-.94.76c-.58-.69-.84-1.39-.79-2.11.05-.71.39-1.39,1.03-2.03.64-.65,1.34-.98,2.07-1,.74-.02,1.37.24,1.9.77.27.27.48.59.63.96.15.37.24.83.27,1.37.03.54,0,1.36-.09,2.46-.08.91-.12,1.51-.11,1.8,0,.29.04.55.1.8l3.3-3.3Z"/>
    <path class="cls-10" d="M707.31,515.84l-1.61-1.61-2.92,2.92-.76-.76-1.29-7.43.68-.68,4.36,4.36.91-.91.76.76-.91.91,1.61,1.61-.83.83ZM704.94,513.47l-3.04-3.04.93,5.14,2.11-2.11Z"/>
    <line class="cls-15" x1="82.7" y1="497.7" x2="82.7" y2="85.2"/>
    <line class="cls-19" x1="82.7" y1="158" x2="76.1" y2="158"/>
    <path class="cls-10" d="M58.65,159.91l1.23-.1c.09.6.3,1.05.63,1.35s.73.45,1.2.45c.56,0,1.04-.21,1.43-.64.39-.42.58-.99.58-1.69,0-.67-.19-1.19-.56-1.58-.37-.38-.86-.58-1.47-.58-.38,0-.72.08-1.02.26-.3.17-.54.39-.71.67l-1.1-.14.92-4.89h4.73v1.12h-3.8l-.51,2.56c.57-.4,1.17-.6,1.8-.6.83,0,1.53.29,2.1.86.57.58.86,1.32.86,2.22s-.25,1.61-.75,2.23c-.61.77-1.44,1.16-2.5,1.16-.87,0-1.57-.24-2.12-.73-.55-.48-.86-1.13-.94-1.93Z"/>
    <path class="cls-10" d="M66.05,157.7c0-1.13.12-2.03.35-2.72s.58-1.22,1.03-1.59c.46-.37,1.03-.56,1.72-.56.51,0,.96.1,1.34.31.39.21.7.5.95.89s.45.86.59,1.42c.14.56.21,1.31.21,2.25,0,1.12-.11,2.02-.34,2.71-.23.69-.57,1.22-1.03,1.59-.46.38-1.03.56-1.73.56-.92,0-1.64-.33-2.16-.99-.63-.79-.94-2.08-.94-3.87ZM67.25,157.7c0,1.56.18,2.6.55,3.12.37.52.82.78,1.35.78s.99-.26,1.35-.78.55-1.56.55-3.12-.18-2.61-.55-3.12c-.37-.51-.82-.77-1.37-.77s-.97.23-1.29.68c-.4.58-.6,1.65-.6,3.21Z"/>
    <line class="cls-19" x1="82.7" y1="400.7" x2="76.1" y2="400.7"/>
    <path class="cls-10" d="M62.4,405.1v-2.28h-4.13v-1.07l4.34-6.17h.95v6.17h1.29v1.07h-1.29v2.28h-1.17ZM62.4,401.75v-4.29l-2.98,4.29h2.98Z"/>
    <path class="cls-10" d="M66.05,400.4c0-1.13.12-2.03.35-2.72s.58-1.22,1.03-1.59c.46-.37,1.03-.56,1.72-.56.51,0,.96.1,1.34.31.39.21.7.5.95.89s.45.86.59,1.42c.14.56.21,1.31.21,2.25,0,1.12-.11,2.02-.34,2.71-.23.69-.57,1.22-1.03,1.59-.46.38-1.03.56-1.73.56-.92,0-1.64-.33-2.16-.99-.63-.79-.94-2.08-.94-3.87ZM67.25,400.4c0,1.56.18,2.6.55,3.12.37.52.82.78,1.35.78s.99-.26,1.35-.78.55-1.56.55-3.12-.18-2.61-.55-3.12c-.37-.51-.82-.77-1.37-.77s-.97.23-1.29.68c-.4.58-.6,1.65-.6,3.21Z"/>
    <line class="cls-19" x1="82.7" y1="279.4" x2="76.1" y2="279.4"/>
    <path class="cls-10" d="M62.4,283.7v-2.28h-4.13v-1.07l4.34-6.17h.95v6.17h1.29v1.07h-1.29v2.28h-1.17ZM62.4,280.35v-4.29l-2.98,4.29h2.98Z"/>
    <path class="cls-10" d="M66.05,281.21l1.23-.1c.09.6.3,1.05.63,1.35s.73.45,1.2.45c.56,0,1.04-.21,1.43-.64.39-.42.58-.99.58-1.69,0-.67-.19-1.19-.56-1.58-.37-.38-.86-.58-1.47-.58-.38,0-.72.08-1.02.26-.3.17-.54.39-.71.67l-1.1-.14.92-4.89h4.73v1.12h-3.8l-.51,2.56c.57-.4,1.17-.6,1.8-.6.83,0,1.53.29,2.1.86.57.58.86,1.32.86,2.22s-.25,1.61-.75,2.23c-.61.77-1.44,1.16-2.5,1.16-.87,0-1.57-.24-2.12-.73-.55-.48-.86-1.13-.94-1.93Z"/>
    <rect class="cls-4" x="82.7" y="82.6" width="638.1" height="417.8"/>
    <path class="cls-1" d="M100.5,303.6c11.8-12.1,23.6-24.3,35.4-48.5,11.8-24.3,23.6-97.1,35.4-97.1s23.6,169.9,35.4,169.9,23.6-48.5,35.4-48.5,23.6,97.1,35.4,97.1,23.6-16.2,35.4-48.5c11.8-32.4,23.6-169.9,35.4-169.9s23.6,8.1,35.4,24.3,23.6,89,35.4,121.3c11.8,32.4,23.6,72.8,35.4,72.8s23.6-169.9,35.4-169.9h35.4c11.8,0,23.6,194.1,35.4,194.1s23.6-72.8,35.4-97.1c11.8-24.3,23.6-32.4,35.4-48.5s23.6-48.5,35.4-48.5,23.6,48.5,35.4,97.1v48.5c-11.8-97.1-23.6-194.1-35.4-194.1s-23.6,153.7-35.4,169.9-23.6,12.1-35.4,24.3c-11.8,12.1-23.6,48.5-35.4,48.5s-23.6-28.3-35.4-48.5c-11.8-20.2-23.6-72.8-35.4-72.8s-23.6,48.5-35.4,48.5-23.6-24.3-35.4-24.3-23.6,97.1-35.4,97.1-23.6-218.4-35.4-218.4-23.6,80.9-35.4,121.3c-11.8,40.4-23.6,121.3-35.4,121.3s-23.6-145.6-35.4-145.6-23.6,24.3-35.4,24.3-23.6-121.3-35.4-121.3-23.6,97.1-35.4,97.1-23.6-12.1-35.4-24.3" pointer-events="none"/>
    <rect class="cls-4" x="82.7" y="82.6" width="638.1" height="417.8"/>
    <path class="cls-18" d="M100.5,303.6c11.8-12.1,23.6-24.3,35.4-48.5,11.8-24.3,23.6-97.1,35.4-97.1s23.6,169.9,35.4,169.9,23.6-48.5,35.4-48.5,23.6,97.1,35.4,97.1,23.6-16.2,35.4-48.5c11.8-32.4,23.6-169.9,35.4-169.9s23.6,8.1,35.4,24.3,23.6,89,35.4,121.3c11.8,32.4,23.6,72.8,35.4,72.8s23.6-169.9,35.4-169.9h35.4c11.8,0,23.6,194.1,35.4,194.1s23.6-72.8,35.4-97.1c11.8-24.3,23.6-32.4,35.4-48.5,11.8-16.2,23.6-48.5,35.4-48.5s23.6,48.5,35.4,97.1" pointer-events="none"/>
    <rect class="cls-4" x="82.7" y="82.6" width="638.1" height="417.8"/>
    <path class="cls-13" d="M100.5,303.6c11.8-12.1,23.6-24.3,35.4-48.5,11.8-24.3,23.6-97.1,35.4-97.1s23.6,169.9,35.4,169.9,23.6-48.5,35.4-48.5,23.6,97.1,35.4,97.1,23.6-16.2,35.4-48.5c11.8-32.4,23.6-169.9,35.4-169.9s23.6,8.1,35.4,24.3,23.6,89,35.4,121.3c11.8,32.4,23.6,72.8,35.4,72.8s23.6-169.9,35.4-169.9h35.4c11.8,0,23.6,194.1,35.4,194.1s23.6-72.8,35.4-97.1c11.8-24.3,23.6-32.4,35.4-48.5,11.8-16.2,23.6-48.5,35.4-48.5s23.6,48.5,35.4,97.1" pointer-events="none"/>
    <rect class="cls-4" x="82.7" y="82.6" width="638.1" height="417.8"/>
    <path class="cls-18" d="M100.5,255.1c11.8,12.1,23.6,24.3,35.4,24.3s23.6-97.1,35.4-97.1,23.6,121.3,35.4,121.3,23.6-24.3,35.4-24.3,23.6,145.6,35.4,145.6,23.6-80.9,35.4-121.3c11.8-40.4,23.6-121.3,35.4-121.3s23.6,218.4,35.4,218.4,23.6-97.1,35.4-97.1,23.6,24.3,35.4,24.3,23.6-48.5,35.4-48.5,23.6,52.6,35.4,72.8,23.6,48.5,35.4,48.5,23.6-36.4,35.4-48.5c11.8-12.1,23.6-8.1,35.4-24.3,11.8-16.2,23.6-169.9,35.4-169.9s23.6,97.1,35.4,194.1" pointer-events="none"/>
    <rect class="cls-4" x="82.7" y="82.6" width="638.1" height="417.8"/>
    <path class="cls-17" d="M100.5,255.1c11.8,12.1,23.6,24.3,35.4,24.3s23.6-97.1,35.4-97.1,23.6,121.3,35.4,121.3,23.6-24.3,35.4-24.3,23.6,145.6,35.4,145.6,23.6-80.9,35.4-121.3c11.8-40.4,23.6-121.3,35.4-121.3s23.6,218.4,35.4,218.4,23.6-97.1,35.4-97.1,23.6,24.3,35.4,24.3,23.6-48.5,35.4-48.5,23.6,52.6,35.4,72.8,23.6,48.5,35.4,48.5,23.6-36.4,35.4-48.5c11.8-12.1,23.6-8.1,35.4-24.3,11.8-16.2,23.6-169.9,35.4-169.9s23.6,97.1,35.4,194.1" pointer-events="none"/>
    <path class="cls-14" d="M705.3,303.6h3.3"/>
    <path class="cls-16" d="M715.01,308v-7.91h-2.83v-1.61h7.57v1.61h-2.82v7.91h-1.92Z"/>
    <path class="cls-16" d="M721.99,308h-1.83v-6.9h1.7v.98c.29-.46.55-.77.78-.92.23-.15.49-.22.79-.22.42,0,.82.12,1.2.34l-.56,1.59c-.31-.2-.59-.3-.86-.3s-.47.07-.65.21-.32.4-.42.76c-.1.37-.15,1.14-.15,2.31v2.13Z"/>
    <path class="cls-16" d="M729.96,308v-1.03c-.25.37-.58.66-.99.87-.41.21-.84.32-1.3.32s-.88-.1-1.25-.31-.63-.49-.8-.86c-.16-.37-.25-.88-.25-1.53v-4.36h1.83v3.17c0,.97.03,1.56.1,1.78.07.22.19.39.37.52.18.13.4.19.67.19.31,0,.59-.08.84-.26.25-.17.42-.38.51-.64s.14-.87.14-1.86v-2.91h1.82v6.9h-1.69Z"/>
    <path class="cls-16" d="M733.41,301.1h1.68v.94c.6-.73,1.32-1.1,2.15-1.1.44,0,.83.09,1.15.27.33.18.59.46.8.83.3-.37.63-.64.98-.83.35-.18.73-.27,1.12-.27.51,0,.93.1,1.29.31.35.21.61.51.79.91.13.29.19.77.19,1.43v4.41h-1.83v-3.94c0-.68-.06-1.12-.19-1.32-.17-.26-.43-.39-.78-.39-.25,0-.5.08-.72.23-.22.16-.39.38-.49.69-.1.3-.15.78-.15,1.42v3.31h-1.83v-3.78c0-.67-.03-1.1-.1-1.3-.06-.2-.17-.34-.3-.44-.14-.09-.32-.14-.56-.14-.28,0-.53.08-.76.23-.22.15-.39.37-.48.66-.1.29-.15.76-.15,1.42v3.35h-1.82v-6.9Z"/>
    <path class="cls-16" d="M745.32,301.1h1.7v1.01c.22-.35.52-.63.9-.84.38-.22.79-.33,1.25-.33.8,0,1.48.31,2.04.94.56.63.84,1.5.84,2.62s-.28,2.05-.84,2.69c-.56.64-1.24.96-2.04.96-.38,0-.73-.08-1.04-.23s-.64-.41-.98-.78v3.47h-1.82v-9.52ZM747.12,304.43c0,.78.15,1.35.46,1.72.31.37.68.56,1.12.56s.78-.17,1.06-.51.42-.9.42-1.67c0-.72-.14-1.26-.43-1.61-.29-.35-.65-.53-1.08-.53s-.82.17-1.11.52c-.29.34-.44.85-.44,1.53Z"/>
    <path class="cls-5" d="M715.01,308v-7.91h-2.83v-1.61h7.57v1.61h-2.82v7.91h-1.92Z"/>
    <path class="cls-5" d="M721.99,308h-1.83v-6.9h1.7v.98c.29-.46.55-.77.78-.92.23-.15.49-.22.79-.22.42,0,.82.12,1.2.34l-.56,1.59c-.31-.2-.59-.3-.86-.3s-.47.07-.65.21-.32.4-.42.76c-.1.37-.15,1.14-.15,2.31v2.13Z"/>
    <path class="cls-5" d="M729.96,308v-1.03c-.25.37-.58.66-.99.87-.41.21-.84.32-1.3.32s-.88-.1-1.25-.31-.63-.49-.8-.86c-.16-.37-.25-.88-.25-1.53v-4.36h1.83v3.17c0,.97.03,1.56.1,1.78.07.22.19.39.37.52.18.13.4.19.67.19.31,0,.59-.08.84-.26.25-.17.42-.38.51-.64s.14-.87.14-1.86v-2.91h1.82v6.9h-1.69Z"/>
    <path class="cls-5" d="M733.41,301.1h1.68v.94c.6-.73,1.32-1.1,2.15-1.1.44,0,.83.09,1.15.27.33.18.59.46.8.83.3-.37.63-.64.98-.83.35-.18.73-.27,1.12-.27.51,0,.93.1,1.29.31.35.21.61.51.79.91.13.29.19.77.19,1.43v4.41h-1.83v-3.94c0-.68-.06-1.12-.19-1.32-.17-.26-.43-.39-.78-.39-.25,0-.5.08-.72.23-.22.16-.39.38-.49.69-.1.3-.15.78-.15,1.42v3.31h-1.83v-3.78c0-.67-.03-1.1-.1-1.3-.06-.2-.17-.34-.3-.44-.14-.09-.32-.14-.56-.14-.28,0-.53.08-.76.23-.22.15-.39.37-.48.66-.1.29-.15.76-.15,1.42v3.35h-1.82v-6.9Z"/>
    <path class="cls-5" d="M745.32,301.1h1.7v1.01c.22-.35.52-.63.9-.84.38-.22.79-.33,1.25-.33.8,0,1.48.31,2.04.94.56.63.84,1.5.84,2.62s-.28,2.05-.84,2.69c-.56.64-1.24.96-2.04.96-.38,0-.73-.08-1.04-.23s-.64-.41-.98-.78v3.47h-1.82v-9.52ZM747.12,304.43c0,.78.15,1.35.46,1.72.31.37.68.56,1.12.56s.78-.17,1.06-.51.42-.9.42-1.67c0-.72-.14-1.26-.43-1.61-.29-.35-.65-.53-1.08-.53s-.82.17-1.11.52c-.29.34-.44.85-.44,1.53Z"/>
    <path class="cls-14" d="M705.3,352.1h3.3"/>
    <path class="cls-16" d="M712.87,346.98h3.81c.75,0,1.32.03,1.69.09.37.06.7.19.99.39.29.2.54.46.73.79.2.33.29.7.29,1.11,0,.45-.12.86-.36,1.23s-.57.65-.98.84c.58.17,1.03.46,1.34.86.31.41.47.89.47,1.44,0,.43-.1.85-.3,1.26s-.48.74-.82.98c-.35.25-.78.4-1.29.45-.32.03-1.09.06-2.32.06h-3.24v-9.52ZM714.8,348.56v2.2h1.26c.75,0,1.21-.01,1.4-.03.33-.04.59-.15.78-.34s.28-.44.28-.74-.08-.53-.24-.72c-.16-.18-.4-.29-.72-.33-.19-.02-.74-.03-1.64-.03h-1.1ZM714.8,352.35v2.54h1.78c.69,0,1.13-.02,1.32-.06.29-.05.52-.18.7-.38.18-.2.27-.47.27-.81,0-.29-.07-.53-.21-.73s-.34-.34-.6-.44c-.26-.09-.83-.14-1.71-.14h-1.55Z"/>
    <path class="cls-16" d="M722.46,348.67v-1.69h1.82v1.69h-1.82ZM722.46,356.5v-6.9h1.82v6.9h-1.82Z"/>
    <path class="cls-16" d="M732.48,356.5h-1.69v-1.01c-.28.39-.61.69-1,.88-.38.19-.77.29-1.16.29-.79,0-1.47-.32-2.04-.96-.56-.64-.85-1.53-.85-2.67s.28-2.06.83-2.67c.55-.61,1.24-.91,2.08-.91.77,0,1.44.32,2,.96v-3.43h1.82v9.52ZM727.61,352.9c0,.74.1,1.27.3,1.6.29.48.71.71,1.23.71.42,0,.78-.18,1.07-.54.29-.36.44-.89.44-1.6,0-.79-.14-1.36-.43-1.71-.29-.35-.65-.52-1.1-.52s-.8.17-1.09.52c-.29.34-.44.86-.44,1.54Z"/>
    <path class="cls-16" d="M738.27,354.3l1.82.31c-.23.67-.6,1.17-1.11,1.52-.5.35-1.14.52-1.89.52-1.2,0-2.09-.39-2.66-1.18-.46-.63-.68-1.42-.68-2.38,0-1.14.3-2.04.9-2.69.6-.65,1.35-.97,2.27-.97,1.03,0,1.84.34,2.43,1.02s.88,1.72.85,3.11h-4.57c.01.54.16.96.44,1.26s.63.45,1.05.45c.29,0,.53-.08.72-.23.2-.16.34-.41.44-.75ZM738.38,352.46c-.01-.53-.15-.93-.41-1.21-.26-.27-.58-.41-.95-.41-.4,0-.73.14-.99.43s-.39.68-.38,1.18h2.73Z"/>
    <path class="cls-16" d="M747.95,356.5h-1.83v-3.52c0-.75-.04-1.23-.12-1.45-.08-.22-.2-.39-.38-.51-.17-.12-.39-.18-.63-.18-.32,0-.6.09-.85.26s-.42.4-.52.69c-.09.29-.14.81-.14,1.58v3.12h-1.83v-6.9h1.7v1.01c.6-.78,1.36-1.17,2.27-1.17.4,0,.77.07,1.1.22.33.14.59.33.76.55.17.23.29.48.36.77.07.29.1.7.1,1.23v4.29Z"/>
    <path class="cls-3" d="M712.87,346.98h3.81c.75,0,1.32.03,1.69.09.37.06.7.19.99.39.29.2.54.46.73.79.2.33.29.7.29,1.11,0,.45-.12.86-.36,1.23s-.57.65-.98.84c.58.17,1.03.46,1.34.86.31.41.47.89.47,1.44,0,.43-.1.85-.3,1.26s-.48.74-.82.98c-.35.25-.78.4-1.29.45-.32.03-1.09.06-2.32.06h-3.24v-9.52ZM714.8,348.56v2.2h1.26c.75,0,1.21-.01,1.4-.03.33-.04.59-.15.78-.34s.28-.44.28-.74-.08-.53-.24-.72c-.16-.18-.4-.29-.72-.33-.19-.02-.74-.03-1.64-.03h-1.1ZM714.8,352.35v2.54h1.78c.69,0,1.13-.02,1.32-.06.29-.05.52-.18.7-.38.18-.2.27-.47.27-.81,0-.29-.07-.53-.21-.73s-.34-.34-.6-.44c-.26-.09-.83-.14-1.71-.14h-1.55Z"/>
    <path class="cls-3" d="M722.46,348.67v-1.69h1.82v1.69h-1.82ZM722.46,356.5v-6.9h1.82v6.9h-1.82Z"/>
    <path class="cls-3" d="M732.48,356.5h-1.69v-1.01c-.28.39-.61.69-1,.88-.38.19-.77.29-1.16.29-.79,0-1.47-.32-2.04-.96-.56-.64-.85-1.53-.85-2.67s.28-2.06.83-2.67c.55-.61,1.24-.91,2.08-.91.77,0,1.44.32,2,.96v-3.43h1.82v9.52ZM727.61,352.9c0,.74.1,1.27.3,1.6.29.48.71.71,1.23.71.42,0,.78-.18,1.07-.54.29-.36.44-.89.44-1.6,0-.79-.14-1.36-.43-1.71-.29-.35-.65-.52-1.1-.52s-.8.17-1.09.52c-.29.34-.44.86-.44,1.54Z"/>
    <path class="cls-3" d="M738.27,354.3l1.82.31c-.23.67-.6,1.17-1.11,1.52-.5.35-1.14.52-1.89.52-1.2,0-2.09-.39-2.66-1.18-.46-.63-.68-1.42-.68-2.38,0-1.14.3-2.04.9-2.69.6-.65,1.35-.97,2.27-.97,1.03,0,1.84.34,2.43,1.02s.88,1.72.85,3.11h-4.57c.01.54.16.96.44,1.26s.63.45,1.05.45c.29,0,.53-.08.72-.23.2-.16.34-.41.44-.75ZM738.38,352.46c-.01-.53-.15-.93-.41-1.21-.26-.27-.58-.41-.95-.41-.4,0-.73.14-.99.43s-.39.68-.38,1.18h2.73Z"/>
    <path class="cls-3" d="M747.95,356.5h-1.83v-3.52c0-.75-.04-1.23-.12-1.45-.08-.22-.2-.39-.38-.51-.17-.12-.39-.18-.63-.18-.32,0-.6.09-.85.26s-.42.4-.52.69c-.09.29-.14.81-.14,1.58v3.12h-1.83v-6.9h1.7v1.01c.6-.78,1.36-1.17,2.27-1.17.4,0,.77.07,1.1.22.33.14.59.33.76.55.17.23.29.48.36.77.07.29.1.7.1,1.23v4.29Z"/>
    <rect class="cls-4" x="79.4" y="82.6" width="641.4" height="415.2"/>
    <rect class="cls-4" x="79.4" y="82.6" width="641.4" height="415.2"/>
    <path class="cls-7" d="M48.26,38.9v-12.61h-4.5v-2.57h12.06v2.57h-4.49v12.61h-3.06Z"/>
    <path class="cls-7" d="M59.39,38.9h-2.91v-10.99h2.7v1.56c.46-.74.88-1.22,1.25-1.46s.79-.35,1.26-.35c.66,0,1.3.18,1.92.55l-.9,2.54c-.49-.32-.95-.48-1.37-.48s-.75.11-1.04.34c-.28.22-.51.63-.67,1.22-.16.59-.24,1.81-.24,3.68v3.4Z"/>
    <path class="cls-7" d="M72.09,38.9v-1.65c-.4.59-.93,1.05-1.58,1.39-.65.34-1.34.51-2.06.51s-1.4-.16-1.99-.49c-.59-.32-1.01-.78-1.27-1.37s-.39-1.4-.39-2.43v-6.96h2.91v5.05c0,1.55.05,2.49.16,2.84.11.35.3.62.58.83.28.2.64.31,1.08.31.5,0,.94-.14,1.33-.41.39-.27.66-.61.81-1.01.15-.4.22-1.39.22-2.96v-4.64h2.91v10.99h-2.7Z"/>
    <path class="cls-7" d="M77.58,27.91h2.68v1.5c.96-1.17,2.1-1.75,3.43-1.75.7,0,1.31.15,1.83.44.52.29.94.73,1.27,1.31.48-.59,1-1.03,1.56-1.31.56-.29,1.16-.44,1.79-.44.81,0,1.49.16,2.05.49.56.33.98.81,1.25,1.44.2.47.3,1.23.3,2.28v7.03h-2.91v-6.28c0-1.09-.1-1.79-.3-2.11-.27-.41-.68-.62-1.24-.62-.41,0-.79.12-1.15.37s-.62.61-.78,1.09c-.16.48-.24,1.24-.24,2.27v5.28h-2.91v-6.02c0-1.07-.05-1.76-.16-2.07s-.26-.54-.48-.69c-.22-.15-.51-.23-.89-.23-.45,0-.85.12-1.21.36-.36.24-.62.59-.77,1.05s-.23,1.21-.23,2.27v5.34h-2.91v-10.99Z"/>
    <path class="cls-7" d="M96.57,27.91h2.71v1.61c.35-.55.83-1,1.43-1.35.6-.34,1.27-.52,2-.52,1.28,0,2.36.5,3.25,1.5.89,1,1.34,2.4,1.34,4.18s-.45,3.26-1.35,4.28-1.98,1.53-3.26,1.53c-.61,0-1.16-.12-1.65-.36-.49-.24-1.01-.66-1.56-1.24v5.54h-2.91v-15.17ZM99.45,33.22c0,1.24.25,2.15.74,2.74.49.59,1.09.89,1.79.89s1.24-.27,1.69-.81c.45-.54.67-1.43.67-2.67,0-1.15-.23-2.01-.69-2.57-.46-.56-1.04-.84-1.72-.84s-1.3.27-1.77.82-.7,1.36-.7,2.44Z"/>
    <path class="cls-7" d="M118.51,38.9l-4.43-10.99h3.05l2.07,5.61.6,1.87c.16-.48.26-.79.3-.94.1-.31.2-.62.31-.93l2.09-5.61h2.99l-4.37,10.99h-2.62Z"/>
    <path class="cls-7" d="M126.26,35.76l2.92-.45c.12.57.38,1,.76,1.29.38.29.91.44,1.59.44.75,0,1.32-.14,1.7-.41.26-.19.38-.45.38-.78,0-.22-.07-.4-.21-.55-.15-.14-.47-.27-.97-.38-2.35-.52-3.83-.99-4.46-1.42-.87-.59-1.3-1.42-1.3-2.47,0-.95.38-1.75,1.13-2.4.75-.65,1.92-.97,3.5-.97s2.62.25,3.35.74c.73.49,1.23,1.21,1.51,2.17l-2.74.51c-.12-.43-.34-.75-.67-.98-.33-.23-.8-.34-1.4-.34-.77,0-1.31.11-1.65.32-.22.15-.33.35-.33.59,0,.21.1.38.29.53.26.19,1.17.47,2.72.82,1.55.35,2.63.78,3.25,1.29.61.52.91,1.24.91,2.16,0,1.01-.42,1.87-1.26,2.6-.84.72-2.09,1.09-3.74,1.09-1.5,0-2.68-.3-3.56-.91s-1.44-1.43-1.71-2.47Z"/>
    <path class="cls-7" d="M144.99,23.72h6.07c1.2,0,2.1.05,2.69.15.59.1,1.12.31,1.58.63.47.32.85.74,1.16,1.27.31.53.47,1.12.47,1.78,0,.71-.19,1.36-.57,1.96-.38.59-.9,1.04-1.56,1.34.92.27,1.64.73,2.13,1.38.5.65.75,1.41.75,2.29,0,.69-.16,1.36-.48,2.01-.32.65-.76,1.17-1.31,1.56-.56.39-1.24.63-2.05.72-.51.06-1.74.09-3.7.1h-5.17v-15.18ZM148.06,26.25v3.51h2.01c1.19,0,1.94-.02,2.23-.05.52-.06.94-.24,1.24-.54.3-.3.45-.7.45-1.19s-.13-.85-.39-1.14c-.26-.29-.64-.47-1.15-.53-.3-.03-1.18-.05-2.62-.05h-1.76ZM148.06,32.29v4.06h2.84c1.1,0,1.8-.03,2.1-.09.46-.08.83-.28,1.11-.61.29-.32.43-.75.43-1.29,0-.46-.11-.84-.33-1.16-.22-.32-.54-.55-.96-.69-.42-.14-1.32-.22-2.72-.22h-2.47Z"/>
    <path class="cls-7" d="M160.27,26.42v-2.69h2.91v2.69h-2.91ZM160.27,38.9v-10.99h2.91v10.99h-2.91Z"/>
    <path class="cls-7" d="M176.24,38.9h-2.7v-1.62c-.45.63-.98,1.1-1.59,1.4-.61.31-1.23.46-1.85.46-1.26,0-2.34-.51-3.25-1.53-.9-1.02-1.35-2.44-1.35-4.26s.44-3.28,1.31-4.25,1.98-1.46,3.32-1.46c1.23,0,2.29.51,3.19,1.53v-5.47h2.91v15.18ZM168.48,33.17c0,1.17.16,2.02.49,2.55.47.76,1.12,1.14,1.97,1.14.67,0,1.24-.28,1.71-.85.47-.57.7-1.42.7-2.55,0-1.26-.23-2.17-.68-2.73s-1.04-.83-1.75-.83-1.27.27-1.73.82-.7,1.37-.7,2.46Z"/>
    <path class="cls-7" d="M185.48,35.4l2.9.49c-.37,1.06-.96,1.87-1.76,2.43-.8.56-1.81.83-3.02.83-1.91,0-3.33-.62-4.24-1.87-.72-1-1.09-2.26-1.09-3.79,0-1.82.48-3.25,1.43-4.28.95-1.03,2.16-1.55,3.61-1.55,1.64,0,2.93.54,3.87,1.62s1.4,2.74,1.36,4.96h-7.29c.02.86.25,1.53.7,2.01s1.01.72,1.68.72c.46,0,.84-.12,1.15-.37.31-.25.54-.65.7-1.2ZM185.64,32.46c-.02-.84-.24-1.48-.65-1.92-.41-.44-.92-.66-1.51-.66-.64,0-1.16.23-1.57.69-.41.46-.62,1.09-.61,1.88h4.35Z"/>
    <path class="cls-7" d="M200.9,38.9h-2.91v-5.61c0-1.19-.06-1.96-.19-2.3-.12-.35-.33-.62-.61-.81-.28-.19-.62-.29-1.01-.29-.5,0-.96.14-1.36.41-.4.28-.67.64-.82,1.1s-.22,1.3-.22,2.53v4.98h-2.91v-10.99h2.7v1.61c.96-1.24,2.17-1.86,3.62-1.86.64,0,1.23.12,1.76.35.53.23.93.53,1.21.88.27.36.46.77.57,1.22.11.46.16,1.11.16,1.96v6.83Z"/>
    <path class="cls-7" d="M204.41,30.81v-2.91h2.91v2.91h-2.91ZM204.41,38.9v-2.91h2.91v2.91h-2.91Z"/>
    <path class="cls-7" d="M216.82,38.9v-15.18h4.92c1.86,0,3.08.08,3.64.23.87.23,1.6.72,2.18,1.49.59.76.88,1.75.88,2.96,0,.93-.17,1.71-.51,2.35-.34.63-.77,1.13-1.29,1.5s-1.05.6-1.59.72c-.73.14-1.79.22-3.18.22h-2v5.72h-3.06ZM219.89,26.29v4.31h1.68c1.21,0,2.02-.08,2.42-.24.41-.16.73-.41.96-.75.23-.34.35-.73.35-1.18,0-.55-.16-1.01-.49-1.37-.32-.36-.73-.58-1.23-.67-.37-.07-1.1-.1-2.2-.1h-1.48Z"/>
    <path class="cls-7" d="M230.27,33.25c0-.97.24-1.9.71-2.8s1.15-1.59,2.02-2.07c.87-.48,1.85-.71,2.92-.71,1.66,0,3.03.54,4.09,1.62,1.06,1.08,1.59,2.45,1.59,4.09s-.54,3.04-1.61,4.13-2.42,1.64-4.05,1.64c-1.01,0-1.97-.23-2.88-.68-.91-.46-1.61-1.12-2.09-2s-.71-1.95-.71-3.21ZM233.25,33.4c0,1.09.26,1.93.78,2.51.52.58,1.16.87,1.92.87s1.4-.29,1.91-.87c.51-.58.77-1.42.77-2.53s-.26-1.9-.77-2.48c-.51-.58-1.15-.87-1.91-.87s-1.4.29-1.92.87c-.52.58-.78,1.42-.78,2.5Z"/>
    <path class="cls-7" d="M243.81,27.91h2.71v1.61c.35-.55.83-1,1.43-1.35.6-.34,1.27-.52,2-.52,1.28,0,2.36.5,3.25,1.5.89,1,1.34,2.4,1.34,4.18s-.45,3.26-1.35,4.28-1.98,1.53-3.26,1.53c-.61,0-1.16-.12-1.65-.36-.49-.24-1.01-.66-1.56-1.24v5.54h-2.91v-15.17ZM246.69,33.22c0,1.24.25,2.15.74,2.74.49.59,1.09.89,1.79.89s1.24-.27,1.69-.81c.45-.54.67-1.43.67-2.67,0-1.15-.23-2.01-.69-2.57-.46-.56-1.04-.84-1.72-.84s-1.3.27-1.77.82-.7,1.36-.7,2.44Z"/>
    <path class="cls-7" d="M264.08,38.9v-1.65c-.4.59-.93,1.05-1.58,1.39-.65.34-1.34.51-2.06.51s-1.4-.16-1.99-.49c-.59-.32-1.01-.78-1.27-1.37s-.39-1.4-.39-2.43v-6.96h2.91v5.05c0,1.55.05,2.49.16,2.84.11.35.3.62.58.83.28.2.64.31,1.08.31.5,0,.94-.14,1.33-.41.39-.27.66-.61.81-1.01.15-.4.22-1.39.22-2.96v-4.64h2.91v10.99h-2.7Z"/>
    <path class="cls-7" d="M269.79,38.9v-15.18h2.91v15.18h-2.91Z"/>
    <path class="cls-7" d="M277.86,31.26l-2.64-.48c.3-1.06.81-1.85,1.53-2.36s1.8-.77,3.23-.77c1.3,0,2.26.15,2.9.46.64.31,1.08.7,1.34,1.17s.39,1.34.39,2.6l-.03,3.4c0,.97.05,1.68.14,2.14.09.46.27.95.52,1.47h-2.88c-.08-.19-.17-.48-.28-.86-.05-.17-.08-.29-.1-.34-.5.48-1.03.85-1.59,1.09-.57.24-1.17.36-1.81.36-1.13,0-2.02-.31-2.68-.92s-.98-1.39-.98-2.33c0-.62.15-1.17.44-1.66.3-.49.71-.86,1.25-1.12.53-.26,1.31-.48,2.31-.68,1.36-.26,2.3-.49,2.83-.71v-.29c0-.56-.14-.96-.41-1.2-.28-.24-.8-.36-1.56-.36-.52,0-.92.1-1.21.31-.29.2-.52.56-.7,1.07ZM281.75,33.62c-.37.12-.96.27-1.77.45-.81.17-1.33.34-1.58.51-.38.27-.57.61-.57,1.03s.15.76.46,1.06c.3.3.69.45,1.16.45.52,0,1.02-.17,1.5-.52.35-.26.58-.58.69-.96.08-.25.11-.72.11-1.42v-.58Z"/>
    <path class="cls-7" d="M290.26,38.9h-2.91v-10.99h2.7v1.56c.46-.74.88-1.22,1.25-1.46s.79-.35,1.26-.35c.66,0,1.3.18,1.92.55l-.9,2.54c-.49-.32-.95-.48-1.37-.48s-.75.11-1.04.34c-.28.22-.51.63-.67,1.22-.16.59-.24,1.81-.24,3.68v3.4Z"/>
    <path class="cls-7" d="M295.72,26.42v-2.69h2.91v2.69h-2.91ZM295.72,38.9v-10.99h2.91v10.99h-2.91Z"/>
    <path class="cls-7" d="M306.65,27.91v2.32h-1.99v4.43c0,.9.02,1.42.06,1.57s.12.27.26.37.3.15.49.15c.27,0,.66-.09,1.17-.28l.25,2.26c-.68.29-1.44.43-2.3.43-.52,0-1-.09-1.42-.26-.42-.18-.73-.4-.93-.68-.2-.28-.33-.66-.41-1.13-.06-.34-.09-1.02-.09-2.05v-4.79h-1.34v-2.32h1.34v-2.18l2.92-1.7v3.88h1.99Z"/>
    <path class="cls-7" d="M307.3,27.91h3.1l2.63,7.8,2.57-7.8h3.01l-3.88,10.58-.69,1.92c-.26.64-.5,1.13-.73,1.47-.23.34-.5.61-.8.82-.3.21-.67.37-1.11.49-.44.12-.93.18-1.49.18s-1.11-.06-1.65-.18l-.26-2.28c.46.09.87.13,1.23.13.68,0,1.18-.2,1.5-.59.32-.4.57-.9.75-1.52l-4.18-11.02Z"/>
    <path class="cls-7" d="M325.6,33.96l2.98-.29c.18,1,.54,1.74,1.09,2.21.55.47,1.29.7,2.22.7.99,0,1.73-.21,2.23-.63.5-.42.75-.91.75-1.46,0-.36-.11-.66-.32-.92s-.58-.47-1.1-.66c-.36-.12-1.18-.34-2.45-.66-1.64-.41-2.79-.91-3.46-1.5-.93-.83-1.4-1.85-1.4-3.05,0-.77.22-1.5.66-2.17.44-.67,1.07-1.19,1.89-1.54s1.82-.53,2.99-.53c1.9,0,3.34.42,4.3,1.25s1.47,1.95,1.52,3.34l-3.06.13c-.13-.78-.41-1.34-.84-1.68-.43-.34-1.08-.51-1.94-.51s-1.59.18-2.09.55c-.32.24-.49.55-.49.94,0,.36.15.67.46.92.39.32,1.32.66,2.82,1.01s2.59.72,3.31,1.09c.71.38,1.27.89,1.68,1.54.4.65.61,1.46.61,2.42,0,.87-.24,1.68-.72,2.44-.48.76-1.17,1.32-2.05,1.69-.88.37-1.98.55-3.3.55-1.92,0-3.39-.44-4.42-1.33s-1.64-2.18-1.84-3.88Z"/>
    <path class="cls-7" d="M350.08,31.16l-2.87.52c-.1-.57-.32-1-.66-1.29s-.79-.43-1.33-.43c-.72,0-1.3.25-1.73.75-.43.5-.65,1.34-.65,2.51,0,1.3.22,2.23.66,2.76.44.54,1.03.81,1.77.81.55,0,1-.16,1.36-.47.35-.31.6-.85.75-1.62l2.86.49c-.3,1.31-.87,2.3-1.71,2.97-.84.67-1.97,1-3.38,1-1.61,0-2.89-.51-3.85-1.52-.96-1.01-1.43-2.42-1.43-4.21s.48-3.23,1.44-4.24c.96-1.01,2.26-1.52,3.89-1.52,1.34,0,2.4.29,3.19.87s1.36,1.45,1.7,2.63Z"/>
    <path class="cls-7" d="M351.61,33.25c0-.97.24-1.9.71-2.8s1.15-1.59,2.02-2.07c.87-.48,1.85-.71,2.92-.71,1.66,0,3.03.54,4.09,1.62,1.06,1.08,1.59,2.45,1.59,4.09s-.54,3.04-1.61,4.13-2.42,1.64-4.05,1.64c-1.01,0-1.97-.23-2.88-.68-.91-.46-1.61-1.12-2.09-2s-.71-1.95-.71-3.21ZM354.59,33.4c0,1.09.26,1.93.78,2.51.52.58,1.16.87,1.92.87s1.4-.29,1.91-.87c.51-.58.77-1.42.77-2.53s-.26-1.9-.77-2.48c-.51-.58-1.15-.87-1.91-.87s-1.4.29-1.92.87c-.52.58-.78,1.42-.78,2.5Z"/>
    <path class="cls-7" d="M368.02,38.9h-2.91v-10.99h2.7v1.56c.46-.74.88-1.22,1.25-1.46s.79-.35,1.26-.35c.66,0,1.3.18,1.92.55l-.9,2.54c-.49-.32-.95-.48-1.37-.48s-.75.11-1.04.34c-.28.22-.51.63-.67,1.22-.16.59-.24,1.81-.24,3.68v3.4Z"/>
    <path class="cls-7" d="M379.85,35.4l2.9.49c-.37,1.06-.96,1.87-1.76,2.43-.8.56-1.81.83-3.02.83-1.91,0-3.33-.62-4.24-1.87-.72-1-1.09-2.26-1.09-3.79,0-1.82.48-3.25,1.43-4.28.95-1.03,2.16-1.55,3.61-1.55,1.64,0,2.93.54,3.87,1.62s1.4,2.74,1.36,4.96h-7.29c.02.86.25,1.53.7,2.01s1.01.72,1.68.72c.46,0,.84-.12,1.15-.37.31-.25.54-.65.7-1.2ZM380.02,32.46c-.02-.84-.24-1.48-.65-1.92-.41-.44-.92-.66-1.51-.66-.64,0-1.16.23-1.57.69-.41.46-.62,1.09-.61,1.88h4.35Z"/>
    <path class="cls-7" d="M384.25,35.76l2.92-.45c.12.57.38,1,.76,1.29.38.29.91.44,1.59.44.75,0,1.32-.14,1.7-.41.26-.19.38-.45.38-.78,0-.22-.07-.4-.21-.55-.15-.14-.47-.27-.97-.38-2.35-.52-3.83-.99-4.46-1.42-.87-.59-1.3-1.42-1.3-2.47,0-.95.38-1.75,1.13-2.4.75-.65,1.92-.97,3.5-.97s2.62.25,3.35.74c.73.49,1.23,1.21,1.51,2.17l-2.74.51c-.12-.43-.34-.75-.67-.98-.33-.23-.8-.34-1.4-.34-.77,0-1.31.11-1.65.32-.22.15-.33.35-.33.59,0,.21.1.38.29.53.26.19,1.17.47,2.72.82,1.55.35,2.63.78,3.25,1.29.61.52.91,1.24.91,2.16,0,1.01-.42,1.87-1.26,2.6-.84.72-2.09,1.09-3.74,1.09-1.5,0-2.68-.3-3.56-.91s-1.44-1.43-1.71-2.47Z"/>
    <path class="cls-7" d="M402.95,26.42v-2.69h2.91v2.69h-2.91ZM402.95,38.9v-10.99h2.91v10.99h-2.91Z"/>
    <path class="cls-7" d="M418.84,38.9h-2.91v-5.61c0-1.19-.06-1.96-.19-2.3-.12-.35-.33-.62-.61-.81-.28-.19-.62-.29-1.01-.29-.5,0-.96.14-1.36.41-.4.28-.67.64-.82,1.1s-.22,1.3-.22,2.53v4.98h-2.91v-10.99h2.7v1.61c.96-1.24,2.17-1.86,3.62-1.86.64,0,1.23.12,1.76.35.53.23.93.53,1.21.88.27.36.46.77.57,1.22.11.46.16,1.11.16,1.96v6.83Z"/>
    <path class="cls-7" d="M432.73,27.91v2.32h-1.99v4.43c0,.9.02,1.42.06,1.57s.12.27.26.37.3.15.49.15c.27,0,.66-.09,1.17-.28l.25,2.26c-.68.29-1.44.43-2.3.43-.52,0-1-.09-1.42-.26s-.73-.4-.93-.68c-.2-.28-.33-.66-.41-1.13-.06-.34-.09-1.02-.09-2.05v-4.79h-1.33v-2.32h1.33v-2.18l2.92-1.7v3.88h1.99Z"/>
    <path class="cls-7" d="M437.64,23.72v5.58c.94-1.1,2.06-1.65,3.36-1.65.67,0,1.27.12,1.81.37s.94.57,1.22.95c.27.39.46.81.56,1.28.1.47.15,1.2.15,2.18v6.45h-2.91v-5.81c0-1.15-.06-1.88-.17-2.19s-.3-.56-.58-.74c-.28-.18-.63-.27-1.05-.27-.48,0-.92.12-1.29.35-.38.23-.66.59-.83,1.06s-.26,1.17-.26,2.1v5.51h-2.91v-15.18h2.91Z"/>
    <path class="cls-7" d="M454.06,35.4l2.9.49c-.37,1.06-.96,1.87-1.76,2.43s-1.81.83-3.02.83c-1.91,0-3.33-.62-4.24-1.87-.72-1-1.09-2.26-1.09-3.79,0-1.82.48-3.25,1.43-4.28.95-1.03,2.16-1.55,3.61-1.55,1.64,0,2.93.54,3.87,1.62.95,1.08,1.4,2.74,1.36,4.96h-7.29c.02.86.25,1.53.7,2.01.45.48,1.01.72,1.68.72.46,0,.84-.12,1.15-.37.31-.25.54-.65.7-1.2ZM454.23,32.46c-.02-.84-.24-1.48-.65-1.92-.41-.44-.92-.66-1.51-.66-.64,0-1.16.23-1.57.69-.41.46-.62,1.09-.61,1.88h4.35Z"/>
    <path class="cls-7" d="M465.4,38.9v-15.18h4.92c1.86,0,3.08.08,3.64.23.87.23,1.6.72,2.18,1.49.59.76.88,1.75.88,2.96,0,.93-.17,1.71-.51,2.35s-.77,1.13-1.29,1.5c-.52.36-1.05.6-1.59.72-.73.14-1.79.22-3.18.22h-2v5.72h-3.06ZM468.46,26.29v4.31h1.68c1.21,0,2.02-.08,2.42-.24.41-.16.73-.41.96-.75.23-.34.35-.73.35-1.18,0-.55-.16-1.01-.49-1.37-.32-.36-.73-.58-1.23-.67-.37-.07-1.1-.1-2.21-.1h-1.48Z"/>
    <path class="cls-7" d="M481.69,31.26l-2.64-.48c.3-1.06.81-1.85,1.53-2.36s1.8-.77,3.23-.77c1.3,0,2.26.15,2.9.46.63.31,1.08.7,1.34,1.17s.39,1.34.39,2.6l-.03,3.4c0,.97.05,1.68.14,2.14.09.46.27.95.52,1.47h-2.88c-.08-.19-.17-.48-.28-.86-.05-.17-.08-.29-.1-.34-.5.48-1.03.85-1.59,1.09-.57.24-1.17.36-1.81.36-1.13,0-2.02-.31-2.68-.92s-.98-1.39-.98-2.33c0-.62.15-1.17.44-1.66.3-.49.71-.86,1.25-1.12.53-.26,1.31-.48,2.31-.68,1.36-.26,2.3-.49,2.83-.71v-.29c0-.56-.14-.96-.41-1.2-.28-.24-.8-.36-1.56-.36-.52,0-.92.1-1.21.31-.29.2-.52.56-.7,1.07ZM485.58,33.62c-.37.12-.96.27-1.77.45s-1.33.34-1.58.51c-.38.27-.57.61-.57,1.03s.15.76.46,1.06c.3.3.69.45,1.16.45.52,0,1.02-.17,1.5-.52.35-.26.58-.58.69-.96.08-.25.11-.72.11-1.42v-.58Z"/>
    <path class="cls-7" d="M490.28,35.76l2.92-.45c.12.57.38,1,.76,1.29.38.29.91.44,1.59.44.75,0,1.32-.14,1.7-.41.25-.19.38-.45.38-.78,0-.22-.07-.4-.21-.55-.14-.14-.47-.27-.97-.38-2.35-.52-3.83-.99-4.46-1.42-.87-.59-1.3-1.42-1.3-2.47,0-.95.38-1.75,1.13-2.4.75-.65,1.92-.97,3.5-.97s2.62.25,3.35.74,1.24,1.21,1.51,2.17l-2.74.51c-.12-.43-.34-.75-.67-.98-.33-.23-.8-.34-1.4-.34-.77,0-1.32.11-1.65.32-.22.15-.33.35-.33.59,0,.21.1.38.29.53.26.19,1.17.47,2.72.82,1.55.35,2.63.78,3.25,1.29.61.52.91,1.24.91,2.16,0,1.01-.42,1.87-1.26,2.6s-2.09,1.09-3.74,1.09c-1.5,0-2.68-.3-3.56-.91s-1.44-1.43-1.71-2.47Z"/>
    <path class="cls-7" d="M508.14,27.91v2.32h-1.99v4.43c0,.9.02,1.42.06,1.57s.12.27.26.37.3.15.49.15c.27,0,.66-.09,1.17-.28l.25,2.26c-.68.29-1.44.43-2.3.43-.52,0-1-.09-1.42-.26s-.73-.4-.93-.68c-.2-.28-.33-.66-.41-1.13-.06-.34-.09-1.02-.09-2.05v-4.79h-1.33v-2.32h1.33v-2.18l2.92-1.7v3.88h1.99Z"/>
    <path class="cls-7" d="M516.02,38.9v-15.18h4.59l2.75,10.35,2.72-10.35h4.6v15.18h-2.85v-11.95l-3.01,11.95h-2.95l-3-11.95v11.95h-2.85Z"/>
    <path class="cls-7" d="M533.03,33.25c0-.97.24-1.9.71-2.8.48-.9,1.15-1.59,2.02-2.07.87-.48,1.85-.71,2.92-.71,1.66,0,3.03.54,4.09,1.62s1.59,2.45,1.59,4.09-.54,3.04-1.61,4.13-2.42,1.64-4.05,1.64c-1.01,0-1.97-.23-2.88-.68-.91-.46-1.61-1.12-2.09-2-.48-.88-.71-1.95-.71-3.21ZM536.01,33.4c0,1.09.26,1.93.78,2.51.52.58,1.16.87,1.92.87s1.4-.29,1.91-.87c.51-.58.77-1.42.77-2.53s-.26-1.9-.77-2.48c-.51-.58-1.15-.87-1.91-.87s-1.4.29-1.92.87c-.52.58-.78,1.42-.78,2.5Z"/>
    <path class="cls-7" d="M556.65,38.9h-2.91v-5.61c0-1.19-.06-1.96-.19-2.3-.12-.35-.33-.62-.61-.81-.28-.19-.62-.29-1.01-.29-.5,0-.96.14-1.36.41-.4.28-.67.64-.82,1.1s-.22,1.3-.22,2.53v4.98h-2.91v-10.99h2.7v1.61c.96-1.24,2.17-1.86,3.62-1.86.64,0,1.23.12,1.76.35.53.23.93.53,1.21.88.27.36.46.77.57,1.22.11.46.16,1.11.16,1.96v6.83Z"/>
    <path class="cls-7" d="M564.65,27.91v2.32h-1.99v4.43c0,.9.02,1.42.06,1.57s.12.27.26.37.3.15.49.15c.27,0,.66-.09,1.17-.28l.25,2.26c-.68.29-1.44.43-2.3.43-.52,0-1-.09-1.42-.26-.42-.18-.73-.4-.93-.68-.2-.28-.33-.66-.41-1.13-.06-.34-.09-1.02-.09-2.05v-4.79h-1.34v-2.32h1.34v-2.18l2.92-1.7v3.88h1.99Z"/>
    <path class="cls-7" d="M569.56,23.72v5.58c.94-1.1,2.06-1.65,3.36-1.65.67,0,1.27.12,1.81.37.54.25.94.57,1.22.95.27.39.46.81.56,1.28.1.47.15,1.2.15,2.18v6.45h-2.91v-5.81c0-1.15-.05-1.88-.17-2.19s-.31-.56-.58-.74c-.28-.18-.63-.27-1.05-.27-.48,0-.91.12-1.29.35s-.66.59-.83,1.06-.26,1.17-.26,2.1v5.51h-2.91v-15.18h2.91Z"/>
  </g>
  <g id="interactions:svg">
    <g id="blue">
      <path class="cls-6" d="M655.54,210.32c1.7-1.8,3.4-3.1,4.8-3.9,2-1.3,3.3-2.1,5.1-2.2,2.5-.2,4.4.9,5.6,1.5,2.5,1.4,4,3.3,5.3,5.3,1.8,2.7,4.3,7,6.5,13.1-1.1-7.5-2.1-13.7-2.9-18.4-.8-4.9-1.6-9.3-2.8-15.2-1.7-8.2-2.5-12.3-4.2-17.3-1.8-5.4-3.9-9.6-5.3-12.5-.4.6-1,1.5-1.5,2.7-2.1,4.1-2.6,7.5-3.5,12.8-.5,2.9-1.2,5.7-1.7,8.6-.9,5.2-2.4,13.3-5.2,25.5h-.2Z"/>
      <path class="cls-6" d="M199.34,299.42c.3,0,.7,3.3,3.8,5.5.5.3,1.7,1.1,3.4,1.4,3.2.5,6-1.4,8-2.9,7.7-5.9,11.8-12,12.4-11.6.4.3-1.8,4.4-6.6,13.8-2.4,4.7-2.5,4.9-3.4,6.6-2.8,5.2-5.5,9.1-7.4,11.8-.8.6-1.7,1.2-2.5,1.8-.4-.6-1.1-1.6-1.7-2.8-1.4-2.6-1.9-4.9-2.1-5.8-1.8-7.4-4.4-17.5-3.8-17.7l-.1-.1Z"/>
      <path class="cls-6" d="M99.94,258.72v40.8c6.7-7.5,13.3-15,20-22.5-2.9-2.2-6.1-4.7-9.3-7.6-2.9-2.7-5.5-5.3-7.8-7.8l-2.9-2.9Z"/>
      <path class="cls-6" d="M307.34,334.12c-.3-.1,1-5.8,2.1-9.5,1-3.7,1.7-5.2,2.4-8.7.2-.9.3-1.8.7-3.2.7-2.8,1.5-4.9,1.7-5.5.8-2.1,1.9-5.9,3.5-13.5-.9,6.4-1.9,11.8-2.8,16-1.8,8.8-3.3,13.5-4.2,16.1-1.3,3.8-3.1,8.4-3.4,8.3h0Z"/>
      <path class="cls-6" d="M422.84,307.02c1,.7,2.5,1.7,4.2,3.2,1.2,1.1,1.9,1.8,3.1,3.1.6.7,2.3,2.4,5.8,5.8,3.5,3.5,5.3,5.3,6,5.9,3.3,2.8,5,4.3,7.9,5.1,1,.3,3.5.9,6.3.3,6.1-1.4,8.7-7.9,9-8.7-.6,5.2-1.2,9.9-1.8,13.8-.2,1.6-1.1,7.3-2.5,14.7-.7,3.8-1.2,6.1-2.2,10.7-.7,3.1-1.2,5.3-2.2,8.1-.8,2.1-1.5,3.8-2.1,4.9-.7-.2-1.8-.5-2.9-1.3-1.7-1.1-2.7-2.6-3.1-3.2-4.9-7.8-6-10.7-6-10.7-2.1-5.4-4.8-10.6-6.7-16.1-3.4-9.8-7.6-21.6-12.5-35.5l-.3-.1Z"/>
    </g>
    <g id="pinknwhite">
      <path class="cls-11" d="M260.8,341.2c.5,3,1.1,7,1.9,11.7.1.7.9,5.6,1.6,9.9,1.6,9.5,2.4,14.3,3.4,19.9,4.4,25,4.1,18.2,5.8,27.4.2,1,.6,3.4,1.8,6.5,1,2.5,2.1,4.4,2.9,5.6.8-1,2-2.4,3.1-4.2,1.3-2.1,2-3.9,2.4-4.9,2.5-6.6,4.5-13.8,4.5-13.8,2-6,2.5-9.2,3.4-12.9,1.1-4.8,2.5-11,3.8-18.2-.7,1.1-1.7,2.6-3.2,4.1-.5.5-2.5,2.5-5.9,4.4-2.7,1.5-4.2,2.3-6.5,2.4-.7,0-3.1,0-5.5-1.4-.5-.3-2.2-1.4-4.4-6.3-1.6-3.6-1.7-5.3-3.9-11.9-.8-2.5-.9-2.4-1.5-4.5-1-3.1-2.4-7.7-3.6-13.6l-.1-.2Z"/>
      <path class="cls-11" d="M100,259.35c.2,13.6.4,27.1.6,40.7,6.5-7.4,12.9-14.8,19.4-22.2-6.6-6.2-13.3-12.4-19.9-18.5h-.1Z"/>
      <path class="cls-11" d="M423.1,307.75c1.2.6,2.9,1.5,4.8,3.1,1.2,1,1.4,1.4,3.9,4.1,1.9,2.1,3.4,3.5,5.2,5.3,2.1,2.2,3.2,3.3,4.5,4.4,2,1.8,3.3,2.9,5.3,4.1,2.1,1.2,3.6,2.1,5.8,2.2,3.7.3,6.6-1.6,7.6-2.2,3.3-2.2,4.7-5.3,5.2-6.6-.7,5.6-1.4,10.5-2.1,14.7-1.4,8.9-2.5,15.4-4.6,23.6-1.4,5.5-3,10.2-4.4,14-1.4-.7-2.7-1.4-4.1-2.1-1.3-1.7-3.1-4.1-4.9-7.3-3.3-5.7-4.9-10.2-6.3-14.2-3.5-9.7,10.9,31.3-8.8-23.6-2.9-8-5.3-14.7-7-19.5h-.1Z"/>
      <path class="cls-11" d="M656.1,211.05c1-1.5,2.7-3.6,5.5-5.1,1.3-.7,2.9-1.6,5.2-1.5,2.6,0,4.5,1.3,5.1,1.7,1,.7,2,2,3.8,4.5,1.1,1.5,1.9,2.6,2.9,4.4,1.5,2.5,2.4,4.6,2.8,5.5,1.3,3.1,1.6,4.8,1.8,4.8.4,0-1.2-9-2-13.6-1-5.9-1.9-10.3-2-10.7q-1-5.1-4.4-20.5c-1.4-6.4-2.1-9.8-4.4-14.2-1.2-2.4-2.5-4.2-3.4-5.5-.7,1.6-1.8,4-2.8,6.9-2.5,7-3.4,12.5-4.2,17.3-1.5,9-2.8,17.6-4.1,26.1l.2-.1Z"/>
      <path class="cls-11" d="M199.9,300.45c.2.8.6,2.7,2.2,4.2.9.8,1.8,1.3,2.1,1.4,3.5,1.5,7.4-.4,8.6-1,1.5-.8,2.5-1.6,2.9-2,4.2-3.5,8.4-7.7,11.1-10.4-2.4,5.2-4.6,9.6-6.3,13.1-4.6,9.1-3.6,6.1-6.6,11.9-.5.9-1.5,2.9-3.1,4.6-1.1,1.2-2.5,2.5-2.5,2.5-.5.5-.9.9-1.3,1.1-.5-.6-1.3-1.6-2-2.8-1.2-2.2-1.5-3.9-2.2-7.9-.9-4.4.7,3.9-1.5-7.6-.6-3-1.1-5.5-1.4-7.3v.2Z"/>
      <path class="cls-9" d="M340.6,185.65c0-.2,1.2-4.2,4.9-5.2.2,0,3.2-.8,5.3,1,.8.7,1.2,1.5,1.4,1.8,2.3,4.6,3.1,10.1,3.1,10.1.5,3.6,1.4,7.2,2,10.8,1.1,6.4,1.4,8.2,1.7,9.8,3.2,19.2,7.6,60.6,7.6,60.6,2.2,20.8,1,8.4,5.8,52.2,1.8,16.7,2.8,25.8,4.9,38.7,2.2,13.7,4.7,24.9,6.5,32.6.5-.6,1.3-1.6,2.1-2.8,2.6-3.9,3.4-7.6,3.9-9.7,1.1-4.5,2.8-8.9,3.9-13.5,4.5-18.6,3.6-13.7,5.9-23.7,2.5-10.9,3.8-17.4,6-24,.7-2.2,1.3-3.7,2.5-7.4,1.5-4.6,1.7-6,2.8-8.1.9-1.7,2.3-4,4.8-6.5-1.5-5.3-3.8-13.3-6.5-23.2-1.6-6-4.6-17.3-8.1-31.9,0,0-6.7-28-12.1-46.4-.5-1.6-1.5-5.1-3.5-9.5-.8-1.7-2.2-4.7-4.5-8.1-3.4-5.1-6.8-8.1-11.4-12.2-4-3.6-6-5.4-8.8-6.9-4.8-2.5-9.3-3.3-12.4-3.5-.4.5-.9,1.4-1.4,2.4-2.2,4.2-2.8,7.7-3.4,11-.6,2.8-1.5,6.7-3,11.5v.1Z"/>
      <path class="cls-9" d="M127.8,274.95c2.9-5.4,5.1-9.5,6.8-12.6,0,0,2.7-4.9,4.6-9.2,0-.1,0-.2.1-.3.5-1.2,2-4.7,4.8-13.3.5-1.5,2-6.2,4.5-15.3,2.4-8.7,2.3-8.9,4.4-16.1,1.8-6.5,1.6-5.1,4.8-16.1,1.4-4.8,2.9-9.5,4.4-14.3,0,0,1.3-4.2,3.9-10.1.4-.8,1-2.2,2.2-3.9.7-1.1,1.5-1.9,2-2.4.3.4.8,1.1,1.3,2,1.2,2.2,1.5,4.1,1.7,5.1.6,3.2.7,1.8,2.5,9.3.6,2.4,1.3,5.4,2,8.8-.3-1-1.2-2.8-2.9-4.4-.9-.8-2-1.7-3.5-1.8-2.4-.2-4.3,1.8-5.5,3.1-1.9,2.1-2.8,4.2-3.5,5.9-2.6,6.6-3.4,10.5-3.4,10.5-.4,2,1-5.5-5.3,20.1-2.5,10-2.7,11.1-5.2,21.1,0,0-1.5,6.2-4.8,17.7-.9,3.3-1.8,6.5-3.5,10.5-1.5,3.6-3,6.4-4.1,8.4-.8,0-1.9,0-3.1-.1-2.4-.4-4.1-1.5-5.1-2.2l-.1-.4Z"/>
      <path class="cls-9" d="M474.5,293.15c1.3-9.8,2.5-18,3.4-24.1s1.7-11.2,2.8-18.2c3-18.3,2.9-13.9,3.8-21.1.5-4.1,1-8.9,3.4-15,.9-2.2,1.7-4,2.4-5.2h34.1l1.1,1.7c.6,1.4,1.1,2.7,1.7,4.1.5,2.2,1.2,5.2,2,8.7.8,3.9,1.4,7.3,2.1,11.1,1.6,9.3,2.7,17,3.1,19.6,1.1,8.1,1.5,11.3,3.4,26.2,1.2,9.7,1.6,12.3,2.4,18.7,4.9,38.9,4.9,46.2,8.1,65.3,1.2,7.2,3.1,17.7,6.2,30.5-1.6-1.8-4-4.7-6.6-8.4-4.4-6.2-5.8-9.6-11.1-19.4-6.8-12.5-6.9-11.4-10.5-18.8-3.1-6.3-5.2-11.7-7.2-16.7-1-2.5-2.7-7.1-6-16.3-2.2-6-3.8-10.5-6.5-17-1.5-3.7,0,0-5.6-11.6,0-.2-1.5-3.1-4.1-6.2-1.6-1.9-2.5-2.5-3.5-2.9-2.1-.9-4.1-.5-4.9-.3-2.3.5-4,1.9-5.5,3.4-4,4-6.8,8.7-8.4,12.1l-.1-.2Z"/>
      <path class="cls-9" d="M574.5,382.45c-.3-.2,1-3.4,4.1-12.9,1-3,2.1-6.6,3.4-10.8,1.4-4.6,2-7.3,3.1-11.5,0,0,2.4-9.4,5.1-18.2,3.2-10.8,4.8-16.1,7.2-21.5,1.2-2.6,5-10.8,11.8-19.9,2.6-3.5,3.4-4.1,14-17.3,1.4-1.8,2.7-3.3,4.8-5.9,4.8-5.9,5-6.1,6.2-7.6,3-4,4.9-7.2,7.2-11.1,1.8-3.1,4-7.1,6.2-11.9-1,7.9-2,14.4-2.7,18.9-1.4,9.2-1.6,9.9-5.2,31.9-.2,1.4-.9,5.5-1.8,10.9-1.2,7-2,11.5-3.1,16.4-1.4,6.5-2.1,9.8-3.4,12.2-.5,1-3,5.6-8,9.7-3.3,2.7-6.7,4.3-9.5,5.6-2.9,1.4-3.2,1.2-6.3,2.7-2.4,1.1-5.6,2.6-8.8,5.1-3.5,2.7-5.7,5.3-7.6,7.7-2.7,3.5-4,5.9-8,13.1-7.1,12.8-8.2,14.6-8.4,14.5l-.3-.1Z"/>
      <path class="cls-9" d="M698,295.95c1.2,9.9,2.4,19.7,3.6,29.6,0-6.5,0-12.9-.1-19.4-1.2-3.4-2.3-6.8-3.5-10.2Z"/>
    </g>
  </g>
</svg>