<?xml version="1.0" encoding="utf-8"?>
<!-- Generator: Adobe Illustrator 27.3.1, SVG Export Plug-In . SVG Version: 6.00 Build 0)  -->
<svg version="1.2" baseProfile="tiny" id="g-finalChart2024-Plan_de_travail_1-interactions-img" xmlns="http://www.w3.org/2000/svg" xmlns:xlink="http://www.w3.org/1999/xlink"
	 x="0px" y="0px" viewBox="0 0 796 576" overflow="visible" xml:space="preserve">
<g>
	<g id="pinknwhite_00000145057271687961312600000012760185621124312745_">
		<path fill="#FFFFFF" d="M100.002,259.35c0.2,13.6,0.4,27.1,0.6,40.7c6.5-7.4,12.9-14.8,19.4-22.2c-6.6-6.2-13.3-12.4-19.9-18.5
			H100.002z"/>
		<path fill="#FFFFFF" d="M423.102,307.75c1.2,0.6,2.9,1.5,4.8,3.1c1.2,1,1.4,1.4,3.9,4.1c1.9,2.1,3.4,3.5,5.2,5.3
			c2.1,2.2,3.2,3.3,4.5,4.4c2,1.8,3.3,2.9,5.3,4.1c2.1,1.2,3.6,2.1,5.8,2.2c3.7,0.3,6.6-1.6,7.6-2.2c3.3-2.2,4.7-5.3,5.2-6.6
			c-0.7,5.6-1.4,10.5-2.1,14.7c-1.4,8.9-2.5,15.4-4.6,23.6c-1.4,5.5-3,10.2-4.4,14c-1.4-0.7-2.7-1.4-4.1-2.1
			c-1.3-1.7-3.1-4.1-4.9-7.3c-3.3-5.7-4.9-10.2-6.3-14.2c-3.5-9.7,10.9,31.3-8.8-23.6c-2.9-8-5.3-14.7-7-19.5H423.102z"/>
		<path fill="#FFFFFF" d="M656.102,211.05c1-1.5,2.7-3.6,5.5-5.1c1.3-0.7,2.9-1.6,5.2-1.5c2.6,0,4.5,1.3,5.1,1.7c1,0.7,2,2,3.8,4.5
			c1.1,1.5,1.9,2.6,2.9,4.4c1.5,2.5,2.4,4.6,2.8,5.5c1.3,3.1,1.6,4.8,1.8,4.8c0.4,0-1.2-9-2-13.6c-1-5.9-1.9-10.3-2-10.7
			c-1-5.1-1-5.1-4.4-20.5c-1.4-6.4-2.1-9.8-4.4-14.2c-1.2-2.4-2.5-4.2-3.4-5.5c-0.7,1.6-1.8,4-2.8,6.9c-2.5,7-3.4,12.5-4.2,17.3
			c-1.5,9-2.8,17.6-4.1,26.1L656.102,211.05z"/>
		<path fill="#FFFFFF" d="M199.902,300.45c0.2,0.8,0.6,2.7,2.2,4.2c0.9,0.8,1.8,1.3,2.1,1.4c3.5,1.5,7.4-0.4,8.6-1
			c1.5-0.8,2.5-1.6,2.9-2c4.2-3.5,8.4-7.7,11.1-10.4c-2.4,5.2-4.6,9.6-6.3,13.1c-4.6,9.1-3.6,6.1-6.6,11.9c-0.5,0.9-1.5,2.9-3.1,4.6
			c-1.1,1.2-2.5,2.5-2.5,2.5c-0.5,0.5-0.9,0.9-1.3,1.1c-0.5-0.6-1.3-1.6-2-2.8c-1.2-2.2-1.5-3.9-2.2-7.9c-0.9-4.4,0.7,3.9-1.5-7.6
			c-0.6-3-1.1-5.5-1.4-7.3V300.45z"/>
		<path fill="#ED186F" d="M340.602,185.65c0-0.2,1.2-4.2,4.9-5.2c0.2,0,3.2-0.8,5.3,1c0.8,0.7,1.2,1.5,1.4,1.8
			c2.3,4.6,3.1,10.1,3.1,10.1c0.5,3.6,1.4,7.2,2,10.8c1.1,6.4,1.4,8.2,1.7,9.8c3.2,19.2,7.6,60.6,7.6,60.6c2.2,20.8,1,8.4,5.8,52.2
			c1.8,16.7,2.8,25.8,4.9,38.7c2.2,13.7,4.7,24.9,6.5,32.6c0.5-0.6,1.3-1.6,2.1-2.8c2.6-3.9,3.4-7.6,3.9-9.7
			c1.1-4.5,2.8-8.9,3.9-13.5c4.5-18.6,3.6-13.7,5.9-23.7c2.5-10.9,3.8-17.4,6-24c0.7-2.2,1.3-3.7,2.5-7.4c1.5-4.6,1.7-6,2.8-8.1
			c0.9-1.7,2.3-4,4.8-6.5c-1.5-5.3-3.8-13.3-6.5-23.2c-1.6-6-4.6-17.3-8.1-31.9c0,0-6.7-28-12.1-46.4c-0.5-1.6-1.5-5.1-3.5-9.5
			c-0.8-1.7-2.2-4.7-4.5-8.1c-3.4-5.1-6.8-8.1-11.4-12.2c-4-3.6-6-5.4-8.8-6.9c-4.8-2.5-9.3-3.3-12.4-3.5c-0.4,0.5-0.9,1.4-1.4,2.4
			c-2.2,4.2-2.8,7.7-3.4,11c-0.6,2.8-1.5,6.7-3,11.5L340.602,185.65z"/>
		<path fill="#ED186F" d="M127.802,274.95c2.9-5.4,5.1-9.5,6.8-12.6c0,0,2.7-4.9,4.6-9.2c0-0.1,0-0.2,0.1-0.3
			c0.5-1.2,2-4.7,4.8-13.3c0.5-1.5,2-6.2,4.5-15.3c2.4-8.7,2.3-8.9,4.4-16.1c1.8-6.5,1.6-5.1,4.8-16.1c1.4-4.8,2.9-9.5,4.4-14.3
			c0,0,1.3-4.2,3.9-10.1c0.4-0.8,1-2.2,2.2-3.9c0.7-1.1,1.5-1.9,2-2.4c0.3,0.4,0.8,1.1,1.3,2c1.2,2.2,1.5,4.1,1.7,5.1
			c0.6,3.2,0.7,1.8,2.5,9.3c0.6,2.4,1.3,5.4,2,8.8c-0.3-1-1.2-2.8-2.9-4.4c-0.9-0.8-2-1.7-3.5-1.8c-2.4-0.2-4.3,1.8-5.5,3.1
			c-1.9,2.1-2.8,4.2-3.5,5.9c-2.6,6.6-3.4,10.5-3.4,10.5c-0.4,2,1-5.5-5.3,20.1c-2.5,10-2.7,11.1-5.2,21.1c0,0-1.5,6.2-4.8,17.7
			c-0.9,3.3-1.8,6.5-3.5,10.5c-1.5,3.6-3,6.4-4.1,8.4c-0.8,0-1.9,0-3.1-0.1c-2.4-0.4-4.1-1.5-5.1-2.2L127.802,274.95z"/>
		<path fill="#ED186F" d="M474.502,293.15c1.3-9.8,2.5-18,3.4-24.1s1.7-11.2,2.8-18.2c3-18.3,2.9-13.9,3.8-21.1
			c0.5-4.1,1-8.9,3.4-15c0.9-2.2,1.7-4,2.4-5.2h34.1l1.1,1.7c0.6,1.4,1.1,2.7,1.7,4.1c0.5,2.2,1.2,5.2,2,8.7
			c0.8,3.9,1.4,7.3,2.1,11.1c1.6,9.3,2.7,17,3.1,19.6c1.1,8.1,1.5,11.3,3.4,26.2c1.2,9.7,1.6,12.3,2.4,18.7
			c4.9,38.9,4.9,46.2,8.1,65.3c1.2,7.2,3.1,17.7,6.2,30.5c-1.6-1.8-4-4.7-6.6-8.4c-4.4-6.2-5.8-9.6-11.1-19.4
			c-6.8-12.5-6.9-11.4-10.5-18.8c-3.1-6.3-5.2-11.7-7.2-16.7c-1-2.5-2.7-7.1-6-16.3c-2.2-6-3.8-10.5-6.5-17c-1.5-3.7,0,0-5.6-11.6
			c0-0.2-1.5-3.1-4.1-6.2c-1.6-1.9-2.5-2.5-3.5-2.9c-2.1-0.9-4.1-0.5-4.9-0.3c-2.3,0.5-4,1.9-5.5,3.4c-4,4-6.8,8.7-8.4,12.1
			L474.502,293.15z"/>
		<path fill="#ED186F" d="M574.502,382.45c-0.3-0.2,1-3.4,4.1-12.9c1-3,2.1-6.6,3.4-10.8c1.4-4.6,2-7.3,3.1-11.5
			c0,0,2.4-9.4,5.1-18.2c3.2-10.8,4.8-16.1,7.2-21.5c1.2-2.6,5-10.8,11.8-19.9c2.6-3.5,3.4-4.1,14-17.3c1.4-1.8,2.7-3.3,4.8-5.9
			c4.8-5.9,5-6.1,6.2-7.6c3-4,4.9-7.2,7.2-11.1c1.8-3.1,4-7.1,6.2-11.9c-1,7.9-2,14.4-2.7,18.9c-1.4,9.2-1.6,9.9-5.2,31.9
			c-0.2,1.4-0.9,5.5-1.8,10.9c-1.2,7-2,11.5-3.1,16.4c-1.4,6.5-2.1,9.8-3.4,12.2c-0.5,1-3,5.6-8,9.7c-3.3,2.7-6.7,4.3-9.5,5.6
			c-2.9,1.4-3.2,1.2-6.3,2.7c-2.4,1.1-5.6,2.6-8.8,5.1c-3.5,2.7-5.7,5.3-7.6,7.7c-2.7,3.5-4,5.9-8,13.1c-7.1,12.8-8.2,14.6-8.4,14.5
			L574.502,382.45z"/>
		<path fill="#ED186F" d="M698.002,295.95c1.2,9.9,2.4,19.7,3.6,29.6c0-6.5,0-12.9-0.1-19.4
			C700.302,302.75,699.202,299.35,698.002,295.95z"/>
	</g>
</g>
<style>
#g-finalChart2024-Plan_de_travail_1-interactions-img rect, #g-finalChart2024-Plan_de_travail_1-interactions-img circle, #g-finalChart2024-Plan_de_travail_1-interactions-img path, #g-finalChart2024-Plan_de_travail_1-interactions-img line, #g-finalChart2024-Plan_de_travail_1-interactions-img polyline, #g-finalChart2024-Plan_de_travail_1-interactions-img polygon { vector-effect: non-scaling-stroke; }
</style>
</svg>

